<svg viewBox="0 0 112 22" fill="none" xmlns="http://www.w3.org/2000/svg"><path fill-rule="evenodd" clip-rule="evenodd" d="M0 11C0 4.93 4.948.006 11.056 0v3.975c-3.9.005-7.058 3.148-7.058 7.024 0 3.88 3.166 7.026 7.072 7.026 3.88 0 7.07-3.115 7.07-7.051l4 .002C22.14 17.075 17.186 22 11.07 22 4.954 22 0 17.075 0 11z" fill="#166346"/><path d="M6.185 10.998c0-2.694 2.2-4.878 4.91-4.878 2.711 0 4.912 2.184 4.912 4.878 0 2.696-2.201 4.878-4.912 4.878-2.71 0-4.91-2.182-4.91-4.878z" fill="#68C530"/><path d="M14.501 4.818a2.804 2.804 0 012.814-2.795 2.804 2.804 0 012.816 2.795 2.806 2.806 0 01-2.816 2.799 2.806 2.806 0 01-2.814-2.799z" fill="#166346"/><path d="M100.948 7.589l-.341 1.669c-.803 3.63-1.1 4.8-1.796 8.408l-.155.13-2.215.064-.108-.15.892-3.717.26-1.218c-.95-.021-1.904-.037-2.854-.037-.744 0-1.31.007-1.888.024a158.917 158.917 0 00-1.016 4.904l-.154.13-2.218.064-.109-.15.892-3.717.351-1.62c.585-2.55.695-3.11 1.042-5.465l.154-.153c1.019-.128 1.259-.173 2.301-.387l.112.15-.236 1.07-.337 1.67-.355 1.58c.8.02 1.599.032 2.402.032.848 0 1.406-.017 2.348-.036.305-1.382.428-2.136.695-3.926l.153-.153c1.022-.128 1.26-.173 2.304-.387l.108.15-.232 1.07zM76.516 13.116c-.482 1.87-1.817 5.105-5.923 5.105-2.906 0-4.501-1.5-4.501-4.452 0-.382.03-.808.093-1.252l.046-.332c.79-4.894 2.925-9.53 7.609-9.576.624-.008 1.89-.073 2.75-.276l-.312 1.956c-.868.221-2.24.336-3.043.34-.994.011-1.683.387-2.159.842-.237.223-.422.47-.562.696-.141.221-.244.426-.32.577a6.992 6.992 0 012.082-.314c2.86 0 4.566 1.586 4.566 4.385 0 .76-.13 1.54-.326 2.3zm-2.273-.674c.153-.629.26-1.257.26-1.863 0-2.196-1.419-2.563-2.227-2.563-3.431 0-3.87 5.295-3.87 6.097 0 1.74 1.05 2.498 2.231 2.498 2.338 0 3.211-2.386 3.606-4.169zM104.699 11.114c.52-.45.821-.731 1.539-1.422.759-.734 2.608-2.634 2.955-3.002l.24-.128h2.504l.063.193c-.218.195-.327.282-1.198 1.014-.348.285-.562.5-.975.867l-2.83 2.591 3.372 6.378-.129.168-2.416.067-.174-.13c-.566-1.34-.717-1.64-1.498-3.22l-1.524-3.068a177.58 177.58 0 00-1.313 6.244l-.151.13-2.219.064-.107-.15.891-3.717.349-1.62c.585-2.55.694-3.11 1.042-5.465l.153-.153c1.023-.128 1.26-.173 2.306-.387l.108.15-.233 1.07-.34 1.67-.415 1.856zM89.634 6.602l-.109-.173-3.017-.021c-2.01 0-4.826.128-6.86 2.495-.918 1.08-1.748 2.944-1.748 4.654 0 2.705 1.815 4.269 4.042 4.269 1.857 0 2.82-.802 3.191-1.105l-.153.866.108.154 2.052-.044.157-.151c.434-2.583.59-3.403 1.354-6.74l.983-4.204zm-4.176 8.451c-.238.19-.478.41-.72.559-.566.347-1.31.5-1.899.5-1.99 0-2.558-1.668-2.558-2.707 0-.107.044-2.903 2.337-4.459 1.29-.868 2.712-.91 3.432-.91.328 0 .653.02.983.02l-1.575 6.997z" fill="#68C530"/><path d="M32.827 15.76c1.663 0 2.442-1.723 2.947-3.941.356-1.564.742-3.852-1.266-3.852-1.71 0-2.469 1.63-2.973 3.852-.47 2.06-.577 3.94 1.292 3.94zm-.775 2.4c-2.369 0-5.779-.746-4.543-6.183.461-2.04 1.88-6.364 7.717-6.364 5.676 0 4.831 4.62 4.482 6.251-1.046 4.597-3.872 6.296-7.656 6.296zM45.928 17.89c-1.096 0-2.896 0-3.652.022l-.129-.134c.21-.726.723-2.674 1.263-5.054.437-1.925.826-3.622.977-4.393-.918.021-2.33.021-3.02.044l-.124-.157c.182-.59.436-1.605.597-2.217l.21-.116c.61.022 2.929.045 4.796.045 2.259 0 4.456-.045 4.918-.068l.155.116c-.168.54-.465 1.65-.617 2.217l-.214.136c-.904-.02-1.588-.02-2.891-.02-.113.494-.466 1.945-1.053 4.526-.441 1.95-.805 3.737-1.015 4.87l-.201.182zM58.595 8.6c-.733 0-1.556.024-1.922.024-.113.498-.56 2.358-.97 4.167-.485 2.13-.914 4.125-1.081 4.96l-.215.138c-1.117 0-2.552 0-3.698.023l-.127-.134c.235-.93.832-3.466 1.405-5.983.577-2.533 1.075-5.027 1.237-5.728l.192-.16c1.232 0 2.476.047 5.53.047 2.394 0 4.712-.069 5.948-.092l.105.139c-.16.612-.849 3.532-1.506 6.429a210.666 210.666 0 00-1.145 5.32l-.168.14c-.98 0-2.78 0-3.72.022l-.1-.161c.2-.79.64-2.625 1.157-4.891.39-1.722.786-3.556.942-4.236-.366 0-1.18-.023-1.864-.023z" fill="#166346"/></svg>