<svg viewBox="0 0 94 28" fill="none" xmlns="http://www.w3.org/2000/svg"><path d="M32.371 6.417h8.305V17.45h-1.5V7.781h-5.344v9.668h-1.499V6.417h.038zm14.611 2.969c2.268 0 4.075 1.725 4.075 4.132 0 2.407-1.807 4.172-4.075 4.172-2.269 0-4.076-1.765-4.076-4.172.039-2.407 1.846-4.132 4.076-4.132zm.038 6.94c1.422 0 2.614-1.204 2.614-2.849 0-1.644-1.191-2.808-2.614-2.808-1.423 0-2.614 1.164-2.614 2.808 0 1.685 1.153 2.849 2.614 2.849zm6.188-6.782h1.461v3.21h1.077l2.076-3.17h1.653l-2.538 3.771v.04l2.845 4.092h-1.73l-2.268-3.41h-1.077v3.41h-1.46V9.544h-.039zm8.69 9.909c.615 0 1.077-.441 1.384-1.163l.385-.923-3.191-7.823h1.614l1.884 5.175c.154.402.27.963.27.963h.038s.115-.521.269-.923l1.845-5.174h1.577l-3.576 9.306c-.461 1.244-1.384 1.846-2.46 1.846-.846 0-1.461-.482-1.461-.482l.5-1.163c.038 0 .46.361.922.361zm7.882-9.909h6.612v7.903h-1.46v-6.619h-3.73v6.62h-1.46V9.543h.038zm13.11 3.011h.384v-.16c0-1.284-.73-1.726-1.653-1.726-.73 0-1.5.321-2.114.763l-.577-1.124c.615-.521 1.768-.922 2.845-.922 1.884 0 2.999 1.083 2.999 3.089v5.014h-1.346v-.802c0-.361.038-.642.038-.642h-.038a2.728 2.728 0 01-2.499 1.605c-1.307 0-2.537-.843-2.537-2.327 0-2.487 2.922-2.768 4.498-2.768zm-1.653 3.891c1.268 0 2.037-1.324 2.037-2.527v-.281h-.384c-1.077 0-3.076.08-3.076 1.565 0 .601.5 1.243 1.423 1.243zm6.035-6.9h1.384v4.733c0 .441-.039 1.003-.039 1.043h.039c.076-.16.422-.682.692-1.043l3.23-4.733H94v7.902h-1.423v-4.693c0-.361.038-.923.038-1.043h-.038c-.038.16-.423.682-.653 1.043l-3.268 4.733H87.27V9.546zm1.114-2.889v-.24h1.154v.2c0 .682.538 1.043 1.038 1.043.538 0 1.076-.36 1.076-1.043v-.2h1.154v.24c0 1.284-1.038 2.006-2.23 2.006-1.154 0-2.192-.722-2.192-2.006z" fill="#3A3F4C"/><path d="M33.563 22.384c.385 0 .846.16 1.154.481l-.27.441a1.27 1.27 0 00-.845-.36c-.615 0-1.038.48-1.038 1.123 0 .642.46 1.123 1.076 1.123.346 0 .692-.16.923-.441l.23.44c-.269.322-.73.522-1.191.522-.961 0-1.615-.722-1.615-1.644-.039-.963.654-1.685 1.576-1.685zm3.383 0c.923 0 1.654.682 1.654 1.645 0 .962-.731 1.644-1.615 1.644-.923 0-1.654-.682-1.654-1.644-.038-.923.693-1.645 1.615-1.645zm0 2.808c.577 0 1.038-.482 1.038-1.123 0-.642-.461-1.124-1.038-1.124-.576 0-1.038.482-1.038 1.124 0 .642.462 1.123 1.038 1.123zm6.114-4.052c.539 0 1.154.161 1.538.562l-.307.482a1.891 1.891 0 00-1.23-.482c-1 0-1.577.762-1.577 1.685s.577 1.725 1.577 1.725c.46 0 .96-.2 1.307-.561l.307.44c-.346.362-.884.683-1.653.683-1.307 0-2.153-1.003-2.153-2.287.039-1.284.923-2.246 2.192-2.246zm3.612.401l1.077-.48.192.48-1.154.522c-.615.28-.884.642-.922 1.244.269-.442.653-.562 1.076-.562.77 0 1.269.561 1.269 1.444 0 .883-.577 1.484-1.422 1.484-1.039 0-1.5-.802-1.5-1.885 0-1.123.346-1.805 1.384-2.247zm.077 3.651c.461 0 .884-.361.884-.963 0-.601-.384-1.003-.846-1.003-.5 0-.884.402-.884.963 0 .642.385 1.003.846 1.003zm3.655-2.808c.846 0 1.307.682 1.307 1.484 0 .08 0 .16-.038.24H49.52c.038.683.5 1.044 1.038 1.044.307 0 .653-.16.884-.361l.23.441c-.307.28-.768.441-1.191.441-.961 0-1.615-.722-1.615-1.644.039-.963.692-1.645 1.538-1.645zm.73 1.324c0-.562-.346-.843-.73-.843-.461 0-.807.321-.884.843h1.614zm1.461-1.244h.538v.521c.192-.4.577-.601 1-.601.807 0 1.345.682 1.345 1.645 0 1.002-.577 1.644-1.384 1.644-.384 0-.73-.2-.923-.521a1 1 0 00.039.28v1.445h-.615v-4.413zm1.422 2.728c.462 0 .884-.401.884-1.123 0-.682-.346-1.124-.845-1.124-.462 0-.885.321-.885 1.124-.038.561.27 1.123.846 1.123zm3.537-3.651l1.076-.48.193.48-1.154.522c-.615.28-.884.642-.922 1.244.269-.442.653-.562 1.076-.562.769 0 1.269.561 1.269 1.444 0 .883-.577 1.484-1.423 1.484-1.038 0-1.5-.802-1.5-1.885.04-1.123.347-1.805 1.385-2.247zm.115 3.651c.462 0 .885-.361.885-.963 0-.601-.385-1.003-.846-1.003-.5 0-.884.402-.884.963 0 .642.384 1.003.845 1.003zm3.885-1.524h.154v-.08c0-.521-.27-.682-.654-.682-.307 0-.615.12-.846.321l-.23-.441c.23-.2.692-.361 1.115-.361.769 0 1.191.441 1.191 1.243v2.006h-.538V25.113c-.192.36-.538.641-1 .641-.538 0-.999-.36-.999-.922 0-1.043 1.192-1.164 1.807-1.164zm-.654 1.565c.5 0 .808-.522.808-1.003v-.12h-.154c-.423 0-1.23.04-1.23.601 0 .281.192.522.577.522zm2.382-2.769h.577v1.284h1.538v-1.284h.576v3.17h-.576V24.27h-1.538v1.364h-.577v-3.17zm3.767 0h.576v1.284h.423l.846-1.284h.654l-1 1.525 1.115 1.645h-.692l-.923-1.364h-.422v1.364h-.577v-3.17zm4.577-.08c.922 0 1.653.682 1.653 1.645 0 .962-.73 1.644-1.615 1.644-.923 0-1.653-.682-1.653-1.644 0-.923.73-1.645 1.615-1.645zm0 2.808c.576 0 1.037-.482 1.037-1.123 0-.642-.46-1.124-1.037-1.124s-1.039.482-1.039 1.124c0 .642.462 1.123 1.038 1.123zm2.612-2.728h.653l.77 1.806c.076.2.153.44.153.44s.077-.24.154-.44l.807-1.806h.654l.269 3.17h-.577l-.115-1.886v-.562s-.077.201-.192.482l-.73 1.564h-.5l-.731-1.564a4.51 4.51 0 00-.192-.482v.562l-.116 1.886h-.576l.269-3.17z" fill="#01BF62"/><path d="M14.149 0c-.423 0-.808.04-1.192.16A3.898 3.898 0 0011.765 0c-2.307 0-4.19 1.725-4.19 3.891h.576c0-1.805 1.615-3.29 3.614-3.29h.154c-1.192.683-1.961 1.886-1.961 3.29h.577c0-1.444 1-2.647 2.422-3.089 1.422.442 2.422 1.685 2.422 3.09h.577c0-1.365-.77-2.568-1.961-3.29h.154c1.999 0 3.614 1.484 3.614 3.29h.615c0-2.127-1.923-3.892-4.23-3.892zM0 28L1.884 4.612h20.992l1.076 13.399L0 28z" fill="#3A3F4C"/><path d="M16.186 11.593l-.461 9.708L22.49 28H0l16.186-16.408z" fill="#01BF62"/></svg>