<svg viewBox="0 0 122 30" fill="none" xmlns="http://www.w3.org/2000/svg"><g clip-path="url(#clip0)"><path d="M41.31 14.932h-3.363v-2.107h9.173v2.107h-3.362v5.806h-2.449v-5.806zM56.522 12.825v7.913h-2.367v-4.612l-4.08 4.612h-2.09v-7.88h2.367v4.562l4.08-4.595h2.09zM60.598 20.738h-2.367v-7.88h2.367v2.903h3.803v-2.904h2.367v7.881H64.4v-2.953h-3.803v2.953zM68.478 20.738v-7.88h2.366v2.073h2.448c.585-.03 1.17.043 1.73.216a2.625 2.625 0 011.323 1.017c.32.476.481 1.045.457 1.62a2.756 2.756 0 01-.543 1.737c-.371.499-.9.852-1.498 1.001a5.284 5.284 0 01-1.485.183l-4.798.033zm2.366-1.908h2.04c.315.029.632-.01.93-.116a.978.978 0 00.443-.37c.108-.166.164-.36.162-.56a.894.894 0 00-.168-.537.87.87 0 00-.453-.325 2.717 2.717 0 00-.914-.1h-2.04v2.008zM80.237 20.738H77.87v-7.88h2.367v2.97h.653l2.856-2.97h2.97L82.93 16.59l3.933 4.148h-3.15l-2.823-2.986h-.653v2.986z" fill="#222220"/><path d="M96.869 16.79c0 2.356-1.91 4.18-5.076 4.18-3.167 0-5.093-1.824-5.093-4.18s1.91-4.181 5.109-4.181 5.06 1.825 5.06 4.18zm-2.481 0c0-1.294-1.029-2.24-2.595-2.24-1.567 0-2.596.946-2.596 2.24 0 1.294 1.012 2.256 2.596 2.256 1.583 0 2.595-.962 2.595-2.256zM109.432 16.773c0 2.256-1.779 3.434-4.766 3.5v.797h-2.367v-.796c-2.97-.067-4.75-1.245-4.75-3.501s1.78-3.534 4.75-3.6v-.796h2.367v.796c2.991.066 4.766 1.344 4.766 3.6zm-7.133-1.891c-1.632.066-2.35.83-2.35 1.891 0 1.062.718 1.742 2.35 1.808v-3.7zm4.717 1.891c0-1.062-.701-1.825-2.35-1.891v3.7c1.653-.067 2.354-.747 2.354-1.809h-.004zM122.004 16.773c0 2.256-1.779 3.434-4.766 3.5v.797h-2.366v-.796c-2.971-.067-4.75-1.245-4.75-3.501s1.779-3.534 4.75-3.6v-.796h2.366v.796c2.987.066 4.766 1.344 4.766 3.6zm-7.132-1.891c-1.633.066-2.351.83-2.351 1.891 0 1.062.718 1.742 2.351 1.808v-3.7zm4.717 1.891c0-1.062-.702-1.825-2.351-1.891v3.7c1.649-.067 2.347-.747 2.347-1.809h.004z" fill="#222220"/><path d="M32.615 14.031l.436-1.393-1.42.046a3.308 3.308 0 01-1.844-.656h.192c.425-.001.84-.123 1.2-.352.361-.229.652-.555.84-.942l.624-1.356c-.49.004-.979-.025-1.465-.087a2.266 2.266 0 01-1.195-.734 2.229 2.229 0 00-1.632-.726c-.243 0-.484.04-.714.116.034-.112.061-.225.081-.34a3.127 3.127 0 00-.62-2.269L26.021 3.99l-.661 1.576a1.404 1.404 0 01-.47.56 2.944 2.944 0 00-.783-1.485 3.518 3.518 0 00-1.165-.803 3.472 3.472 0 00-1.879-.238l-1.29.257c.112-.439.288-.858.523-1.244l.71-1.124-1.787.17-.572-1.244-1.101.61L16.526 0l-1.02 1.024-1.102-.58-.571 1.215-1.788-.207.71 1.128c.236.385.412.805.523 1.244l-1.225-.245h-.04a3.211 3.211 0 00-.514-.037 3.468 3.468 0 00-1.382.275 3.515 3.515 0 00-1.165.803c-.405.411-.68.936-.791 1.506a1.383 1.383 0 01-.461-.543l-.665-1.589-1.086 1.352a3.148 3.148 0 00-.608 2.26c.02.116.048.23.082.34a2.296 2.296 0 00-.714-.115 2.23 2.23 0 00-1.632.726 2.304 2.304 0 01-1.184.734 8.203 8.203 0 01-1.485.087l.608 1.377c.189.387.48.713.84.941.36.229.776.35 1.2.353h.192c-.53.394-1.164.62-1.82.651L0 12.638l.437 1.393c.16.536.468 1.012.887 1.374.42.36.934.591 1.48.663a2.327 2.327 0 01-.41 1 2.278 2.278 0 01-.815.7l-1.093.453.587 1.04c.238.377.566.686.954.899a2.57 2.57 0 001.262.317c.233 0 .465-.026.693-.075.059.254.13.505.213.751.202.546.217 1.145.04 1.7l-.53 1.133 1.187.32c.267.068.541.103.816.103a2.61 2.61 0 00.987-.195c.154.278.342.535.56.763.759.792 1.836 1.195 3.203 1.195h.975l-2.011.85 1.526.767c.614.31 1.243.586 1.885.83l-.184.539.527.245c.873.349 1.8.544 2.738.576h1.252a8.138 8.138 0 002.726-.58l.51-.241-.18-.54c.65-.252 1.286-.539 1.906-.858l1.497-.738-2.007-.83h.98c1.366 0 2.448-.414 3.202-1.194.219-.229.407-.485.56-.763.132.053.268.096.407.128.19.045.385.067.58.067.275-.001.55-.036.816-.104l1.191-.32-.518-1.11a2.595 2.595 0 01.02-1.743 7.37 7.37 0 00.213-.767c.23.049.463.074.698.074.444.004.88-.108 1.27-.326.388-.218.715-.534.95-.918l.579-1.029-1.078-.448a2.27 2.27 0 01-.815-.699 2.319 2.319 0 01-.409-1.001 2.834 2.834 0 001.48-.665c.42-.362.728-.84.887-1.376l-.016.034z" fill="#fff"/><path d="M16.526 4.272c-1.139 0-1.996.382-2.18.83l2.18.875 2.178-.876c-.183-.447-1.04-.829-2.178-.829zM16.55 27.424h-.045a8.789 8.789 0 01-2.101-.274l-.531 1.514c.87.247 1.769.377 2.673.386a10.143 10.143 0 002.672-.386l-.57-1.514a8.81 8.81 0 01-2.102.274M20.72 25.919c-.599.303-1.221.556-1.86.755l.448 1.244a11.047 11.047 0 002.065-.784l-.926-.315.273-.9zM12.33 25.919l.274.912-.93.316c.661.33 1.353.592 2.065.784l.448-1.245c-.64-.199-1.262-.451-1.86-.755M16.526 2.825a4.869 4.869 0 012.35.576c.07-.24.154-.476.253-.705l-.245.029-.257.029-.11-.236-.326-.706-.596.316-.232.12-.188-.174-.649-.664-.649.664-.183.186-.233-.12-.6-.315-.322.705-.11.236-.257-.029-.245-.029c.098.23.183.465.253.705a4.878 4.878 0 012.346-.588zM29.644 10.954c.11.039.224.058.339.058.23-.002.454-.066.651-.187.197-.12.358-.292.467-.497a3.134 3.134 0 01-1.848-1.046 1.226 1.226 0 00-.906-.414 1.42 1.42 0 00-.755.232c1.159.626 1.395 1.63 2.04 1.858M3.072 11.012c.114 0 .227-.02.335-.058.66-.228.897-1.245 2.04-1.858a1.42 1.42 0 00-.75-.233 1.208 1.208 0 00-.907.415 3.133 3.133 0 01-1.836 1.05c.109.205.27.377.467.498.196.12.421.184.651.186z" fill="#fff"/><path d="M29.959 15.04h.057c1.224 0 1.632-1.32 1.632-1.32h-.025a4.338 4.338 0 01-1.838-.474 4.409 4.409 0 01-1.47-1.218c-.841-1.082-1.527-2.036-2.886-2.41l-.13-.033-.029-.136c-.037-.212.106-.415.408-.623 1.873-1.244.6-2.837.6-2.837s-.518 1.27-1.714 1.27h-.081a2.488 2.488 0 01-.408-.042l-.22-.041a1.837 1.837 0 00-.482-1.813 2.458 2.458 0 00-2.17-.738c.407.552.713 1.464.236 2.024-.408.485-1.424.506-1.424 1.244 0 .307.281.664.783.983 1.518.97 3.024 2.26 3.648 3.986.783 2.153-.098 3.584-1.359 4.4.274.235.611.38.967.415h.335a2.823 2.823 0 001.832-.576 3.262 3.262 0 01-.73 1.535 3.126 3.126 0 01-1.127.841c-.433.19-.903.279-1.375.258a1.383 1.383 0 00.478 1.02c.326.223.7.364 1.09.415 0 0-1.425.294-1.58 2.43a3.316 3.316 0 01-.375 1.56h.024c3.301 0 3.215-2.879 3.215-2.879.086.265.236.502.438.69.201.188.447.32.713.385.112.028.227.042.343.041a2.35 2.35 0 00.555-.07 3.58 3.58 0 010-2.489 5.96 5.96 0 00.334-2.074c.19.23.43.411.702.528.272.117.567.166.861.144.26.004.518-.059.749-.183a1.56 1.56 0 00.57-.526c-2.2-.93-1.984-3.928-1.984-3.928.254.158.547.24.845.237l-.008.004zm-.653 3.127c-.894-.448-1.461-1.66-1.6-2.074-.147 2.364-1.281 4.003-2.607 5.579a5.071 5.071 0 00-.93 1.613 3.763 3.763 0 01.722-1.622c1.224-1.51 2.415-3.392 2.501-5.566a6.721 6.721 0 00-.922-3.762 3.44 3.44 0 01.09 1.906 3.402 3.402 0 01-.939 1.653s2.265-2.762-.902-5.591c-1.269-1.078-2.656-1.742-3.37-2.215 2.579.855 3.84-.087 3.84-.087a3.084 3.084 0 01-2.554.61c.179.087.366.182.566.29 2.175 1.203 4.134 3.177 4.464 5.915v-.021c.506 2.688 1.633 3.376 1.633 3.376M8.495 21.153c.39-.05.763-.192 1.09-.415a1.362 1.362 0 00.477-1.02 3.09 3.09 0 01-1.377-.258 3.136 3.136 0 01-1.128-.841 3.283 3.283 0 01-.727-1.535 2.824 2.824 0 001.832.577h.339c.356-.037.693-.181.967-.415-1.26-.83-2.142-2.248-1.359-4.4.629-1.726 2.13-3.016 3.648-3.987.502-.315.8-.672.8-.978 0-.722-1.008-.747-1.42-1.245-.477-.564-.18-1.476.233-2.024a2.458 2.458 0 00-1.342.166 2.492 2.492 0 00-.83.572 1.837 1.837 0 00-.481 1.813l-.24.054a2.578 2.578 0 01-.408.041h-.086c-1.2 0-1.734-1.273-1.734-1.273s-1.261 1.593.595 2.841c.323.212.466.415.408.622l-.028.137-.135.025c-1.354.373-2.04 1.327-2.885 2.41-.395.51-.895.927-1.465 1.221a4.334 4.334 0 01-1.836.48h.008s.409 1.318 1.633 1.318H3.1c.298.004.59-.078.844-.236 0 0 .217 2.999-1.983 3.928.143.218.336.397.563.52.228.123.481.186.739.185a1.83 1.83 0 00.855-.155 1.86 1.86 0 00.691-.534 5.978 5.978 0 00.331 2.074 3.593 3.593 0 010 2.489c.18.045.365.069.55.07.116.001.232-.012.344-.041.266-.065.51-.197.712-.385.202-.188.352-.425.438-.69 0 0-.085 2.88 3.22 2.88h.024a3.333 3.333 0 01-.375-1.56c-.135-2.128-1.559-2.431-1.559-2.431zm-.53.523c-1.327-1.58-2.449-3.219-2.612-5.579-.139.415-.702 1.622-1.595 2.074 0 0 1.126-.689 1.632-3.376v.02c.334-2.737 2.289-4.715 4.468-5.914.2-.112.388-.203.567-.29A3.084 3.084 0 017.875 8s1.26.941 3.84.087C11 8.56 9.612 9.224 8.348 10.303c-3.17 2.829-.902 5.59-.902 5.59a3.398 3.398 0 01-.938-1.652 3.438 3.438 0 01.09-1.906 6.676 6.676 0 00-.922 3.762c.077 2.153 1.26 4.052 2.484 5.566.371.476.622 1.037.73 1.634a5.122 5.122 0 00-.93-1.613M14.086 10.638c.053.059.106.125.159.187l.037.046.142.203.033.046c.053.083.106.174.16.265.181.369.452.685.787.918.334.234.722.377 1.126.417.404-.04.79-.184 1.125-.417.335-.234.606-.55.788-.918a4.13 4.13 0 01.164-.265l.024-.038c.05-.07.098-.14.147-.211l.033-.042c.053-.066.106-.133.163-.19l.029-.025c.248-.265.562-.456.91-.552l-.176-.108-.67-.415-.689-.414-1.84 1.016-1.848-.98-.69.416-.673.414-.172.1c.347.096.662.287.91.552l.029.029-.008-.034zm1.705-.05h1.555v.544a.655.655 0 00-.539-.182v.783c.004.194.055.383.147.552h-.78c.1-.178.15-.38.148-.585v-.784a.646.646 0 00-.539.183l.008-.51z" fill="#fff"/><path d="M16.366 9.502V6.325l-1.991-.684.526 3.069 1.465.792zm-.408-2.397v.51l-.098-.046a1.22 1.22 0 01-.408-.236.913.913 0 01-.408-.618l.914.39zM18.15 8.71l.522-3.078-1.987.685v3.177l1.464-.784zm-1.037-1.614l.906-.385a.93.93 0 01-.408.618 1.22 1.22 0 01-.408.236l-.098.046.008-.515zM13.552 16.869c.177.058.363.088.55.087v-.058c.012-.037.021-.074.029-.112.03-.166.046-.334.049-.502a.705.705 0 01-.261-.282.344.344 0 00-.335-.232c-.18.015-.354.077-.506.178a.918.918 0 00.09.532.898.898 0 00.371.385M17.953 15.185c-.37.414-1.093 1.12-1.126 1.157l-.045.045-2.285-.037a2.424 2.424 0 01-.073.568v.075l2.713.494c.282-.2 1.061-.78 1.363-1.004a1.366 1.366 0 01-.192-.987 1.374 1.374 0 01-.342-.311" fill="#fff"/><path d="M18.264 12.39a2.395 2.395 0 01-1.482.77 2.403 2.403 0 01-.248 0 2.403 2.403 0 01-.25 0 1.809 1.809 0 01-.244-.037.956.956 0 00.04.606.96.96 0 00.572.481l.094.037v.104c.01.212.089.414.224.576a.948.948 0 00.523.32c.118-.124.224-.236.306-.332a.774.774 0 01.155-.892c-.033.244.005.493.112.714.106.222.274.406.483.53l.115.055-.033.124a.994.994 0 00.06.732c.113.227.308.4.544.483l.15.058-.065.15a.977.977 0 00-.024.71.957.957 0 00.461.534h1.698v-1.369a1.07 1.07 0 01-.614-.301 1.101 1.101 0 01-.313-.615.98.98 0 01-.644-.374.838.838 0 01-.045-.937c.004.277.103.545.281.755.147.155.344.25.555.27h.123v.128c.012.18.081.351.198.487.116.136.273.23.446.268v-2.763c.016-.437.108-.868.274-1.273h-3.452zM13.698 13.67l-.049 1.784.2.03.49-1.71-.249-.526-.392.423zM19.068 21.842h.048c.303.087.38 1.198.91 1.298a.682.682 0 00.143 0 .404.404 0 00.343-.187s-.27-.415-.47-.717c-.264-.378-.473-.83-.966-.83h-.037a.493.493 0 00-.265.091 1.012 1.012 0 00-.555-.17 3.81 3.81 0 00-.673.145l-1.106-.112a.588.588 0 01-.36-.26v-.03-.091a1.338 1.338 0 00-.265-.836 1.3 1.3 0 00-.722-.483s.029-.174-.037-.24l-.244.298-.816-.415.57.676-.48.552a.154.154 0 00-.03.182l.209.187.265-.162a.12.12 0 01.065 0h.282c.098 0 .2-.025.212-.124-.033.34-.343.933-.139 1.398l.147.385-.975-.14-.457.783a.637.637 0 00-.028.697l.17.216c.12-.122.218-.262.295-.415l-.078-.087a.167.167 0 01-.02-.216l.285-.485 1.155.278.061-.104a.34.34 0 01.315-.17c.053-.004.106-.004.159 0 .302.062.61.095.918.1a1.293 1.293 0 00.975-.303c.408.63 1.265.73 1.196 1.05l-.225 1.078c.147 0 .29 0 .408-.038l.212-1.12c.025-.12.045-.286.045-.286a2.066 2.066 0 01-.408-.477c-.15-.29-.07-.444-.208-.83a.165.165 0 01.139-.086h.037zm-4.354-1.576a.098.098 0 01-.09-.069.1.1 0 01-.004-.04.1.1 0 01.067-.09.097.097 0 01.039-.005c.026 0 .052.01.07.03a.102.102 0 010 .144.099.099 0 01-.07.03" fill="#fff"/><path d="M13.175 22.862s.384-.162.409-.274l-.05-.128a.177.177 0 01.041-.224l.408-.29.69.132a.6.6 0 01-.114-.37l-.645-.14-.62.386a.624.624 0 00-.196.73l.078.178zM18.052 24.69h.408s.355-1.053.375-1.086a8.639 8.639 0 01-.771-.415c.106.162.363.345.31.486l-.322 1.016z" fill="#fff"/><path d="M21.43 18.436h-9.792v3.733c0 1.535 1.09 2.489 2.7 2.489 1.348 0 1.703.054 2.2.56a1.632 1.632 0 011.224-.531v-.058l.31-.97-.526-.585a1.864 1.864 0 01-.653.078 5.248 5.248 0 01-.979-.103h-.102c-.045 0-.045 0-.057.025l-.061.103-.11.187-.213-.05-.942-.224-.13.216v.025l.113.128-.049.166a1.726 1.726 0 01-.363.544l-.236.257-.217-.274-.159-.203a.837.837 0 01-.114-.797l-.265.112L12.89 23l-.065-.187a.926.926 0 01.298-1.099l.759-.415.722.146c0-.07.045-.324.065-.386h-.04l-.408.157-.409-.282a.216.216 0 01-.046-.236.215.215 0 01.046-.07l.388-.598-.983-1.244 1.473.589.102-.124.204-.25.232.225a.45.45 0 01.123.224c.408.165 1.163.65 1.224 1.439l-.233.095c.029.041.066.074.11.096l1.078.107.098-.029c.184-.07.378-.108.575-.112a1.3 1.3 0 01.563.133.837.837 0 01.245-.05h.053c.575 0 .865.44 1.094.788l.118.175c.2.29.465.713.477.73l.119.186-.147.174a.72.72 0 01-.572.287c-.065.006-.13.006-.195 0a.833.833 0 01-.172-.054c0 .058 0 .128-.032.186l-.168.98a2.3 2.3 0 001.359-.851 2.37 2.37 0 00.49-1.543l-.004-3.75zM11.625 18.134h7.626a1.25 1.25 0 01-.277-1.245c-.104-.05-.2-.114-.286-.19-.298.223-1.224.895-1.444 1.066l-.05.033-2.994-.54h-.061a2.44 2.44 0 01-.294 0 .295.295 0 01-.1.167.287.287 0 01-.182.066h-.049a.298.298 0 01-.192-.121.306.306 0 01-.053-.224v-.066a1.212 1.212 0 01-.417-.55 1.234 1.234 0 01-.052-.694v-.054l.045-.033s.057-.042.135-.087l-.217-.034a.15.15 0 01-.096-.061.155.155 0 01-.006-.168.148.148 0 01.093-.068.145.145 0 01.058-.001l.519.083.049-1.854.77-.83.482 1.029-.506 1.783.457.075a.15.15 0 01.096.062.15.15 0 01-.024.202.146.146 0 01-.096.035h-.025l-.371-.063v.03a.41.41 0 00.18.17l2.28.037.584-.585a1.223 1.223 0 01-.555-.397 1.254 1.254 0 01-.261-.636 1.203 1.203 0 01-.649-.605 1.263 1.263 0 01-.053-.83 2.664 2.664 0 01-.95-.647h-3.387c.163.405.256.836.273 1.274v4.47z" fill="#FCE527"/><path d="M14.764 20.062a.096.096 0 00-.074.025.1.1 0 00-.033.071.102.102 0 00.056.1.098.098 0 00.039.009.102.102 0 000-.204M21.419 26.864l-.564-.22.155-.593.172-.647c-.771.401-1.579.725-2.412.967-.408.116-.701.17-.701.17v.419a9.99 9.99 0 01-1.518.132h-.045a9.965 9.965 0 01-1.518-.132v-.415s-.298-.058-.706-.174a13.185 13.185 0 01-2.412-.967l.168.647.159.593-.567.22-.612.237c.841.444 1.72.813 2.623 1.103l-.216.597a8.01 8.01 0 003.089.544h.024a8.002 8.002 0 003.09-.544l-.213-.597c.903-.29 1.78-.659 2.62-1.103l-.616-.237zm-9.736.278l.93-.315-.273-.913c.598.304 1.22.556 1.86.755l-.448 1.245a11.125 11.125 0 01-2.065-.784l-.004.012zm4.847 1.892c-.897-.005-1.79-.13-2.656-.37l.55-1.518a8.805 8.805 0 002.102.274h.045a8.84 8.84 0 002.101-.274l.551 1.518c-.87.248-1.769.377-2.672.386l-.02-.017zm2.803-1.108l-.448-1.244c.64-.2 1.262-.452 1.86-.755l-.273.912.926.316c-.661.33-1.353.592-2.065.784M16.525 3.19a4.192 4.192 0 012.579.8 5.257 5.257 0 01.665-1.738l-.926.108-.482-1.05-.934.49-.902-.908-.902.908-.934-.49-.482 1.05-.926-.108c.323.534.549 1.123.665 1.738a4.2 4.2 0 012.58-.8zm-2.358-.465l.257.029.11-.237.322-.705.6.316.233.12.187-.174.65-.668.648.668.188.186.232-.12.596-.315.326.705.11.236.258-.029.244-.029c-.099.23-.183.465-.253.705a5.082 5.082 0 00-4.696 0 6.14 6.14 0 00-.253-.705l.24.017zM30.015 15.446c1.486 0 1.984-1.539 2.004-1.605l.167-.543h-.559c-.58-.02-1.15-.17-1.668-.437a4.005 4.005 0 01-1.33-1.11l-.111-.137c-.759-.983-1.481-1.917-2.77-2.344a1.3 1.3 0 01.163-.124c.302-.174.565-.413.769-.699.204-.286.345-.614.414-.96a2.485 2.485 0 00-.49-1.776l-.408-.518-.257.618c0 .037-.453 1.029-1.367 1.029h-.27a2.277 2.277 0 00-.636-1.759 2.903 2.903 0 00-.96-.66 2.864 2.864 0 00-1.137-.228c-.146 0-.292.01-.437.034l-.624.124.388.519c.302.414.575 1.132.253 1.518a1.754 1.754 0 01-.523.319c-.408.195-.995.473-.995 1.17 0 .452.347.924.971 1.327 1.84 1.186 2.979 2.41 3.472 3.787.763 2.098-.232 3.293-1.2 3.923l-.432.282.38.353c.338.294.756.477 1.2.523h.37c.38 0 .756-.055 1.119-.166a2.904 2.904 0 01-.319.456 2.737 2.737 0 01-.996.742c-.383.166-.799.242-1.215.22h-.363l-.029.37a1.771 1.771 0 00.608 1.343c.102.09.216.166.339.224a3.275 3.275 0 00-.959 2.273c0 .47-.105.933-.306 1.356l-.408.622h.726c1.2 0 2.118-.334 2.754-1.003.33-.354.576-.78.719-1.245a1.938 1.938 0 001.252.465c.22 0 .44-.027.653-.079l.465-.124-.204-.44a3.18 3.18 0 010-2.177c.151-.459.257-.931.314-1.41.368.19.775.286 1.188.281.332.005.66-.076.953-.234a1.98 1.98 0 00.724-.674l.224-.415-.408-.174c-1.367-.577-1.669-2.128-1.73-2.966.135.028.271.045.408.05l.114.079zm1.086 3.285c-.144.22-.339.4-.569.523a1.53 1.53 0 01-.745.182 1.83 1.83 0 01-.855-.155 1.86 1.86 0 01-.691-.533 5.964 5.964 0 01-.335 2.073 3.58 3.58 0 000 2.489c-.182.046-.368.07-.555.07-.116.001-.23-.013-.343-.041a1.596 1.596 0 01-.712-.385 1.632 1.632 0 01-.438-.69s.085 2.88-3.216 2.88h-.024c.25-.48.38-1.017.375-1.56.143-2.128 1.563-2.43 1.563-2.43a2.5 2.5 0 01-1.09-.416 1.36 1.36 0 01-.477-1.02c.472.021.942-.067 1.375-.257.433-.19.818-.478 1.126-.842.374-.436.626-.966.73-1.535a2.824 2.824 0 01-1.831.577h-.335a1.757 1.757 0 01-.967-.415c1.257-.83 2.138-2.248 1.359-4.4-.629-1.726-2.134-3.016-3.648-3.986-.502-.316-.804-.672-.804-.98 0-.721 1.008-.742 1.424-1.244.477-.564.18-1.476-.237-2.024a2.458 2.458 0 011.342.166c.312.132.594.327.83.573.235.228.405.518.49.837.084.32.081.657-.01.975l.221.046c.135.025.271.038.408.041h.09c1.195 0 1.734-1.273 1.734-1.273s1.273 1.593-.6 2.837c-.322.211-.465.415-.408.622l.029.137.134.025c1.36.373 2.04 1.327 2.885 2.41.396.51.896.927 1.466 1.22a4.34 4.34 0 001.835.48h.025s-.408 1.32-1.632 1.32h-.058a1.564 1.564 0 01-.844-.237s-.216 2.998 1.983 3.927" fill="#222220"/><path d="M27.4 9.457c.458.264.855.624 1.163 1.057.232.366.564.654.955.83.149.05.305.076.461.075a1.65 1.65 0 00.869-.251c.26-.163.473-.397.612-.674l.237-.54-.575-.033a2.74 2.74 0 01-1.592-.925 1.632 1.632 0 00-1.187-.535c-.35.006-.69.11-.983.303l-.53.378.57.315zm.943-.59a1.207 1.207 0 01.906.416c.479.554 1.132.923 1.848 1.045-.109.205-.27.377-.467.498-.196.12-.421.184-.65.186-.116 0-.23-.02-.34-.058-.66-.228-.893-1.244-2.04-1.858a1.42 1.42 0 01.755-.232M27.661 14.795c-.334-2.738-2.289-4.716-4.464-5.915-.2-.112-.387-.203-.567-.29a3.088 3.088 0 002.554-.61s-1.26.941-3.84.087c.715.473 2.102 1.137 3.371 2.215 3.166 2.829.902 5.591.902 5.591a3.402 3.402 0 00.94-1.652c.151-.631.12-1.293-.087-1.907a6.723 6.723 0 01.922 3.762c-.09 2.174-1.277 4.073-2.501 5.587a3.763 3.763 0 00-.727 1.634c.209-.592.524-1.139.93-1.613 1.327-1.58 2.449-3.219 2.608-5.579.139.415.702 1.622 1.6 2.074 0 0-1.127-.688-1.633-3.376M10.777 24.919a3.272 3.272 0 01-.306-1.356 3.277 3.277 0 00-.26-1.234 3.232 3.232 0 00-.703-1.04c.123-.057.237-.132.338-.223a1.766 1.766 0 00.608-1.344l-.024-.37h-.367a2.693 2.693 0 01-1.214-.22 2.736 2.736 0 01-.994-.741 3.032 3.032 0 01-.318-.457c.362.112.739.168 1.118.166h.371a2.169 2.169 0 001.204-.522l.38-.353-.433-.282c-.971-.63-1.963-1.825-1.2-3.924.494-1.364 1.632-2.596 3.489-3.782.624-.415.967-.875.967-1.328 0-.696-.575-.974-.996-1.17a1.738 1.738 0 01-.522-.319c-.326-.385-.053-1.12.253-1.518l.408-.518-.628-.124a2.702 2.702 0 00-.437-.034 2.855 2.855 0 00-1.15.205 2.893 2.893 0 00-.976.65 2.282 2.282 0 00-.657 1.763h-.245c-.918 0-1.35-.988-1.367-1.03l-.257-.617-.408.518a2.518 2.518 0 00-.485 1.776c.067.346.208.674.411.96.204.286.466.525.768.699.058.036.112.078.163.124-1.29.415-2.011 1.36-2.77 2.344l-.11.14c-.36.465-.815.845-1.334 1.112a3.94 3.94 0 01-1.67.436H.865l.172.543c0 .066.514 1.605 2.003 1.605h.074c.137-.006.273-.022.408-.05-.062.83-.364 2.39-1.735 2.966l-.408.174.225.415c.181.283.43.515.723.674.293.158.622.24.954.234.41.004.817-.093 1.183-.282.058.48.163.952.314 1.41a3.18 3.18 0 010 2.178l-.204.44.465.124c.214.052.433.078.653.079a1.93 1.93 0 001.253-.465c.142.466.388.891.718 1.245.64.666 1.558 1 2.755 1.003h.726l-.367-.68zm-.351.232c-3.301 0-3.22-2.878-3.22-2.878a1.633 1.633 0 01-.438.689c-.201.188-.446.32-.712.385a1.33 1.33 0 01-.343.041 2.327 2.327 0 01-.551-.07 3.593 3.593 0 000-2.489 5.978 5.978 0 01-.33-2.073 1.86 1.86 0 01-.692.533c-.27.12-.562.173-.855.155h-.02a1.53 1.53 0 01-.749-.183 1.56 1.56 0 01-.57-.526c2.2-.93 1.984-3.928 1.984-3.928-.255.158-.547.24-.845.236H3.04c-1.224 0-1.632-1.318-1.632-1.318h.024a4.333 4.333 0 001.837-.477 4.406 4.406 0 001.469-1.22c.84-1.083 1.526-2.036 2.884-2.41l.135-.025.029-.136c.036-.212-.106-.415-.408-.623-1.873-1.244-.6-2.837-.6-2.837s.53 1.274 1.734 1.274h.057c.137-.003.273-.017.408-.042l.22-.045A1.833 1.833 0 019.68 5.37a2.459 2.459 0 012.17-.738c-.407.551-.71 1.464-.232 2.024.408.485 1.42.506 1.42 1.244 0 .307-.282.664-.783.983-1.518.97-3.024 2.26-3.648 3.986-.78 2.153.102 3.584 1.359 4.4a1.764 1.764 0 01-.968.416H8.66a2.825 2.825 0 01-1.832-.577c.104.568.354 1.097.726 1.535.31.363.695.65 1.129.84.434.191.904.28 1.376.259a1.384 1.384 0 01-.477 1.02c-.327.222-.7.364-1.09.415 0 0 1.425.294 1.58 2.43-.004.544.125 1.08.375 1.56l-.02-.017z" fill="#222220"/><path d="M3.072 11.415c.157 0 .313-.025.461-.075.392-.176.724-.464.955-.83a3.694 3.694 0 011.159-1.057l.571-.311-.53-.378a1.84 1.84 0 00-.98-.303 1.61 1.61 0 00-1.187.54c-.41.483-.97.81-1.587.925l-.576.029.233.539c.14.276.351.508.612.67.26.163.56.25.865.25h.004zm.726-2.132a1.225 1.225 0 01.906-.415c.267.005.527.086.751.232-1.155.626-1.395 1.63-2.04 1.858a.982.982 0 01-.335.058c-.231 0-.458-.064-.657-.185a1.29 1.29 0 01-.469-.503 3.133 3.133 0 001.849-1.045M5.667 16.093c-.07-1.32.251-2.63.923-3.762a3.437 3.437 0 00-.088 1.907c.15.63.477 1.204.94 1.652 0 0-2.268-2.763.902-5.591 1.27-1.079 2.652-1.742 3.367-2.215-2.58.854-3.84-.087-3.84-.087.356.282.77.483 1.21.588.44.106.897.113 1.34.021-.18.087-.367.183-.567.29-2.175 1.203-4.142 3.182-4.464 5.92v-.021c-.506 2.687-1.632 3.376-1.632 3.376.893-.448 1.46-1.66 1.595-2.074.151 2.364 1.286 4.002 2.612 5.579.405.474.72 1.022.93 1.613a3.761 3.761 0 00-.734-1.626c-1.225-1.514-2.408-3.413-2.494-5.57zM15.78 10.556v.543a.655.655 0 01.542-.183v.784a1.182 1.182 0 01-.147.552h.771a1.201 1.201 0 01-.147-.552v-.784a.646.646 0 01.539.183v-.543h-1.559zM15.449 7.337c.12.105.258.185.408.237l.098.045v-.514l-.906-.386a.93.93 0 00.408.618M17.602 7.337a.913.913 0 00.408-.618l-.905.386v.51l.093-.045c.15-.052.289-.132.408-.237" fill="#222220"/><path d="M19.232 5.255c0-.775-1.286-1.472-2.702-1.472s-2.701.697-2.701 1.472l.029.19.567 3.319-.567.336-1.482.854s-.33.175-.485.278c-.56.415-.678.97-.355 1.211.04-.273.177-.522.385-.699.208-.177.474-.27.745-.263.232.007.458.069.662.181.203.113.378.272.51.466.08.1.153.206.22.315.085.142.17.266.257.386h-3.779c.318.557.504 1.182.543 1.825v8.532c0 2.074 1.563 3.048 3.264 3.048 1.306 0 1.481-.062 2.2.668.718-.73.893-.668 2.199-.668 1.69 0 3.264-.983 3.264-3.048v-8.524c.04-.643.225-1.267.543-1.825h-3.82c.086-.12.172-.244.258-.385.068-.11.141-.214.22-.316.132-.194.307-.353.511-.466.205-.112.432-.174.664-.18.272-.009.537.085.745.262.209.178.346.426.385.7.327-.237.209-.83-.355-1.211-.15-.108-.481-.278-.481-.278l-1.469-.88-.567-.336.567-3.318.024-.174zm-4.856.382l1.991.684v3.177l-1.465-.788-.526-3.073zm.408 6.752c.267.283.591.504.95.647-.076.275-.057.568.054.83.132.278.364.495.648.605.027.233.118.454.262.636.144.183.337.32.555.397-.245.253-.486.49-.584.585l-2.281-.037a.41.41 0 01-.18-.17v-.03l.372.063h.024c.035 0 .07-.012.096-.035a.15.15 0 00.025-.202.15.15 0 00-.096-.062l-.457-.075.506-1.783-.482-1.029-.77.83-.05 1.854-.518-.083a.145.145 0 00-.151.069.155.155 0 00.006.168.15.15 0 00.096.061l.216.034a.86.86 0 00-.135.087l-.044.033v.054c-.05.231-.031.472.052.693.084.22.228.412.417.551v.067a.307.307 0 00.053.223.297.297 0 00.192.12h.049c.066 0 .13-.023.18-.065a.295.295 0 00.101-.166c.097.005.193.005.29 0h.061l2.991.551.049-.033c.237-.17 1.147-.83 1.445-1.066.086.076.182.14.285.19a1.265 1.265 0 00.278 1.245h-7.663v-4.484a3.786 3.786 0 00-.274-1.273h3.432zm3.697 4.094c-.302.228-1.082.805-1.363 1.004l-2.714-.482v-.074c.047-.186.072-.377.074-.568l2.285.037.045-.046c.036-.037.759-.746 1.126-1.157.096.123.212.228.343.311-.065.342.004.696.191.987l.013-.012zm-4.546-.477c.06.117.15.214.261.282-.003.168-.02.336-.049.502 0 .037 0 .074-.028.112v.058a1.728 1.728 0 01-.551-.087.893.893 0 01-.37-.386.912.912 0 01-.087-.53c.145-.106.313-.173.49-.196a.34.34 0 01.334.232v.013zm-.281-.564l.044-1.755.409-.414.248.526-.485 1.71-.216-.067zm4.81 9.24h-.408l.306-1.015c.05-.141-.204-.324-.31-.486.25.152.508.29.771.415 0 .033-.375 1.087-.375 1.087h.016zm1-1.165l-.212 1.12c-.135 0-.278.03-.408.037l.224-1.078c.066-.32-.78-.415-1.195-1.05a1.308 1.308 0 01-.976.303 4.894 4.894 0 01-.918-.1.983.983 0 00-.159 0 .33.33 0 00-.314.171l-.061.104-1.163-.287-.277.49a.172.172 0 00.02.216l.077.087a1.66 1.66 0 01-.293.415l-.172-.216a.638.638 0 01.029-.697l.457-.784.975.15-.15-.353c-.205-.465.105-1.058.138-1.398 0 .104-.106.125-.212.125h-.282a.117.117 0 00-.065 0l-.265.161-.209-.195a.156.156 0 01.029-.182l.481-.552-.57-.676.815.415.245-.299c.065.067.037.24.037.24a1.3 1.3 0 01.722.484c.18.24.273.535.265.836v.121c.082.13.21.224.36.26l1.105.112a3.8 3.8 0 01.673-.145c.198.001.39.06.555.17a.489.489 0 01.266-.091h.036c.494 0 .702.456.967.83.2.286.47.717.47.717a.41.41 0 01-.343.187.695.695 0 01-.143 0c-.53-.1-.608-1.211-.91-1.299h-.049a.162.162 0 00-.139.088c.14.377.058.53.209.83.11.178.248.34.408.476 0 0-.02.166-.045.286l-.033-.029zm-5.92-1.057l.048.128c-.032.112-.408.274-.408.274l-.081-.183a.623.623 0 01.196-.73l.616-.381.657.14a.6.6 0 00.114.37l-.69-.133-.408.29a.179.179 0 00-.036.225h-.009zm6.043 2.12l.187-1.005c0-.058.02-.128.029-.186a.834.834 0 00.171.054c.065.006.13.006.196 0a.709.709 0 00.571-.287l.147-.174-.122-.17s-.274-.44-.478-.73l-.114-.174c-.229-.348-.518-.788-1.093-.788h-.053a.825.825 0 00-.245.05 1.299 1.299 0 00-.564-.133 1.723 1.723 0 00-.575.112l-.098.029-1.077-.108a.292.292 0 01-.11-.095l.232-.096c-.065-.792-.816-1.277-1.224-1.439a.45.45 0 00-.122-.224l-.233-.224-.204.249-.102.125-1.51-.631.984 1.244-.388.598a.214.214 0 00-.063.153.22.22 0 00.063.154l.408.282.408-.158h.041c0 .062-.045.315-.065.386l-.71-.125-.76.415a.926.926 0 00-.29 1.128l.087.187.118.265.265-.112a.843.843 0 00.115.797l.159.207.212.274.237-.257c.154-.156.277-.34.363-.544l.049-.166-.114-.128v-.025l.13-.216.943.224.212.05.114-.19.061-.105c0-.02 0-.024.057-.024h.102c.322.065.648.1.976.103.22.013.441-.014.653-.079l.522.606-.31.97v.059a1.61 1.61 0 00-1.224.53c-.502-.505-.857-.56-2.2-.56-1.611 0-2.7-.957-2.7-2.488v-3.733h9.792v3.733a2.369 2.369 0 01-.495 1.543 2.3 2.3 0 01-1.361.846zm2.121-12.19a3.709 3.709 0 00-.273 1.272v2.796a.814.814 0 01-.447-.268.837.837 0 01-.198-.487v-.128h-.122a.868.868 0 01-.555-.27 1.194 1.194 0 01-.282-.755.84.84 0 00.045.937.98.98 0 00.645.374 1.1 1.1 0 00.313.615c.167.165.382.271.613.301v1.369h-1.714a.957.957 0 01-.461-.534.977.977 0 01.025-.71l.065-.15-.15-.058a.968.968 0 01-.545-.483.993.993 0 01-.06-.732l.033-.124-.114-.054a1.237 1.237 0 01-.484-.53 1.263 1.263 0 01-.112-.715.768.768 0 00-.139.876 9.226 9.226 0 01-.306.331.948.948 0 01-.532-.323.976.976 0 01-.223-.59v-.103l-.094-.037a.941.941 0 01-.57-.481.96.96 0 01-.042-.606 1.73 1.73 0 00.494.038 2.3 2.3 0 00.947-.208c.298-.136.565-.333.783-.58l3.46.016zm-2.644-2.83l.67.415.167.1a1.97 1.97 0 00-.91.551l-.029.025c-.057.062-.11.125-.163.191l-.033.041c-.051.067-.1.137-.147.212l-.024.037c-.057.083-.11.175-.163.266a2.436 2.436 0 01-.788.918 2.383 2.383 0 01-1.126.417 2.383 2.383 0 01-1.126-.418 2.437 2.437 0 01-.788-.917c-.053-.091-.106-.178-.159-.266l-.033-.045-.13-.216-.037-.046a3.767 3.767 0 00-.159-.186l-.029-.03a1.969 1.969 0 00-.91-.55l.172-.1.673-.415.69-.415 1.84 1.016 1.84-.983.702.398zm-.906-.83l-1.465.785v-3.19l1.988-.684-.523 3.09zm-1.632-2.74l-2.179-.888c.184-.448 1.04-.83 2.18-.83 1.138 0 1.994.382 2.178.83l-2.179.887z" fill="#222220"/></g><defs><clipPath id="clip0"><path fill="#fff" d="M0 0h122v30H0z"/></clipPath></defs></svg>