<svg viewBox="0 0 60 30" fill="none" xmlns="http://www.w3.org/2000/svg"><path fill-rule="evenodd" clip-rule="evenodd" d="M.003 30h29.126V.15H.003V30z" fill="#001689"/><path fill-rule="evenodd" clip-rule="evenodd" d="M8.823 9.783c.215.485.565.983 1.527 1.655.213.15.45.463.27.904-.182.44-.52 1.064-.318 1.308.204.243.927.37 1.516.128 0 0 .123.38.34.625 0 0-.103.21-.442.104 0 0 .124.312-.046.649 0 0-.395-.07-.564-.441 0 0-.16.29-.476.394 0 0-.26-.138-.202-.673 0 0-.193.476-.78.556 0 0-.34-.439.101-1.03 0 0-.317.29-.891.15 0 0-.091-.3.428-.717 0 0-.588-.023-.813-.533 0 0 .248-.313.857-.243 0 0-.563-.128-.688-.822 0 0 .407-.267 1.05.162 0 0-.114-.22-.383-.44-.271-.22-.6-.834-.486-1.736zm2.365 6.983a1.626 1.626 0 01-.197-.345c.101.843.136 1.41.58 1.956 0 0 .268-.365.096-1.252a.85.85 0 01-.239-.114s.101.36.037.722c0 0-.159-.119-.277-.967zm-.769-.086a2.663 2.663 0 01-.21-.318c-.036.49-.163 1.776.259 2.18 0 0 .289-.217.39-2.095-.061.105-.169.217-.221.279 0 0 .07.595-.138 1.016 0 0-.209-.163-.08-1.063zm-1.003.982c.353-.433.46-1.734.46-1.734a2.61 2.61 0 00.148-.111l.057-.052c0 .047.002.096.006.145-.051.783-.111 1.59-.35 1.991-.233.394-.664.598-.664.598-.402-.734.084-1.72.493-2.404.05-.02.1-.044.152-.07-.142.526-.415 1.154-.302 1.637zm-.996-2.256a.589.589 0 00.043.241c-.338.34-.588.664-1.088 1.376-.5.712-1.293.74-1.293.74.077-.577.23-1.032.654-1.524.424-.49.967-.94 1.365-1.236a.737.737 0 00.444.051.603.603 0 00-.102.21c-.303.178-1.18.633-1.534 1.367 0 0 .554-.18 1.51-1.225zm-.63-.718l.032-.062c.013-.02.023-.038.037-.055-.327.13-1.487.578-1.862.777-.376.2-.92.652-1.215 1.572 0 0 .783.071 1.43-.476.646-.55 1.4-1.313 1.721-1.556a.538.538 0 01-.074-.085s-.875.793-1.8 1.136c0 0 .198-.368.564-.635.444-.323.778-.432 1.167-.616zm-.664-.544c.013-.031.026-.062.04-.09-.384.08-1.34.198-1.769.331-.427.136-1.2.456-1.659 1.353 0 0 .674.213 1.944-.4s1.67-.74 1.912-.806a.87.87 0 01-.4-.126c-.508.231-1.186.504-1.859.523 0 0 .331-.24.681-.391a8.872 8.872 0 011.11-.394zm.033-.644c.124.06.22.09.382.106a.993.993 0 00-.247.235c-.449.132-1.213.276-2.472.37-1.26.092-1.931-.145-1.931-.145a5.581 5.581 0 011.612-.648c.473-.094 1.716-.083 2.26-.16.006.007.072.062.18.129-.458.041-1.435.088-1.938.35 0 0 .93.127 2.154-.237zm-.095-.743c.064-.038.14-.076.235-.112-.638-.198-1.513-.515-2.832-.602-.965-.065-1.662-.008-2.024.087 0 0 .88.635 1.886.86 1.007.224 1.824.083 2.42.088.04-.06.084-.129.155-.196-.7.004-1.86-.181-2.276-.324 0 0 1.013-.216 2.436.2zm-.005-.767a.893.893 0 00.495.59c-.896-.4-2.659-.632-3.608-1.036-1.28-.546-1.515-1.227-1.515-1.227 1.11-.03 2.006.247 2.697.465.809.253 2.041.725 2.472.922a.944.944 0 00-.488.157 13.235 13.235 0 00-1.429-.494c-.432-.124-.75-.148-1.02-.174 0 0 .38.257 1.005.461.62.204.888.237 1.39.336zm-.068-1.001c.036.065.141.22.184.281-1.416-.243-2.973-1.34-3.455-2.02-.48-.68-.345-1.695-.345-1.695.467.095 1.482.993 1.745 1.263.263.268 1.056 1.06 1.606 1.502l.171.51c-.47-.388-1.03-.82-1.377-1.09-.268-.206-.669-.5-1.068-.639 0 0 .367.49.664.73.342.277.69.517.976.678.254.143.384.224.9.48z" fill="#fff"/><path fill-rule="evenodd" clip-rule="evenodd" d="M10.987 15.048c.043-.04.08-.077.11-.11.066.083.285.362.393.642.081.238.168.562.211.747.044.184.172.57.25.703 0 0-.344.044-.6-.262-.25-.3-.335-.601-.375-.91a3.446 3.446 0 01.01-.81zm-.544.047c.064.088.125.123.131.127l.048.025.047-.017a.681.681 0 00.12-.049c.05.143.071.212.083.333.016.162.047.416-.012.624-.071.253-.22.408-.302.505 0 0-.226-.255-.29-.464a1.228 1.228 0 01-.008-.737c.046-.143.118-.273.183-.347zm-.775.024c.23-.031.405-.117.537-.216.03.083.075.195.042.354a.88.88 0 01-.296.462c-.234.19-.544.37-.889.315 0 0-.079-.265.606-.915zm-.265-.443c.029.235.138.383.145.395-.08.098-.37.609-.974.524 0 0-.164-.348.24-.625.27-.187.402-.225.589-.294zm.053-.436c-.16.042-.37.059-.627-.004l-.07-.016-.021-.07c-.311.26-.68.304-.807.54 0 0 .155.292.558.245a1.34 1.34 0 00.922-.521 1.63 1.63 0 01.045-.174zm-.697-.364c.056-.087.095-.223.216-.36a2.07 2.07 0 00-.82.012c-.372.07-.751.16-.941.742 0 0 .237.208.672.118.369-.078.689-.24.873-.512zm-.159-.628a.958.958 0 01-.24-.331l-.03-.073c-.324-.135-.66-.204-.99-.079-.328.127-.415.271-.497.398 0 0 .364.313.782.323.42.015.807-.11.976-.238zm.1-.68a1.18 1.18 0 01.187-.056 1.175 1.175 0 01-.35-.619c-.15.036-.501.036-.655-.024a.822.822 0 00-.697.097s.078.427.615.573c.507.136.693.1.9.03zm-.195-.832l.07-.046a.76.76 0 01.335-.1c-.172-.13-.586-.485-.876-.655-.32-.183-.847-.426-1.116-.462 0 0 .252.678.545.952.306.285.519.39 1.042.31zm.547-.312a1.98 1.98 0 01-.306-.687c-.06-.227-.2-.79-.283-.936-.082-.146-.38-.656-.96-.816 0 0-.155.667.137 1.192.252.455.769.933 1.412 1.247zm3.218 3.094a.813.813 0 00.257.182s.186.362-.04.8c-.225.438-.413.884-.504 1.133 0 0-.12-.018-.255-.703-.09-.465-.204-.58-.325-.74.13.067.236.087.245.09l.09.015.04-.082a.949.949 0 00.098-.552.431.431 0 00.363-.157l.009-.014.023.028z" fill="#fff"/><path fill-rule="evenodd" clip-rule="evenodd" d="M7.336 9.265a3.543 3.543 0 00-.002.209l.012.163c-.344-.448-.754-.988-1.145-1.487-.269-.342-.496-.549-.747-.715.21.633.592 1.138.861 1.39.268.252.66.676 1.04.936l.036.128c.03.117.075.239.139.352.087.16.204.318.342.47a6.341 6.341 0 00-.365-.172l-.118-.05C6.343 9.92 5.308 8.743 4.887 7.924c-.421-.819-.245-1.77-.134-2.278.474.412 1.157 1.223 1.455 1.666.367.541.837 1.309 1.127 1.934l.001.019zm14.667 3.492a1.394 1.394 0 00-.233-.112c.636-.198 1.512-.515 2.83-.602.966-.065 1.665-.008 2.025.087 0 0-.88.635-1.887.86-1.006.224-1.823.083-2.42.088a1.058 1.058 0 00-.154-.196c.7.004 1.862-.181 2.276-.324 0 0-1.013-.216-2.437.2zm.004-.767a.892.892 0 01-.495.59c.895-.4 2.66-.632 3.607-1.036 1.282-.546 1.516-1.227 1.516-1.227-1.109-.03-2.006.247-2.697.465-.808.253-2.042.725-2.473.922a.945.945 0 01.49.157c.601-.237.88-.337 1.428-.494.431-.124.75-.148 1.02-.174 0 0-.38.257-1.005.461-.62.204-.888.237-1.391.336zm.066-1.001c-.035.065-.142.22-.183.281 1.415-.243 2.973-1.34 3.453-2.02.483-.68.346-1.695.346-1.695-.468.095-1.482.993-1.745 1.263-.262.268-1.056 1.06-1.606 1.502l-.171.51c.47-.388 1.029-.82 1.378-1.09.267-.206.668-.5 1.067-.639 0 0-.367.49-.664.73a7.25 7.25 0 01-.976.678c-.254.143-.384.224-.899.48zm-.345-1.724a3.01 3.01 0 010 .209l-.012.163c.343-.448.755-.988 1.146-1.487.269-.342.497-.549.748-.715-.213.633-.592 1.138-.862 1.39s-.658.676-1.039.936l-.037.128c-.03.117-.074.239-.138.352-.089.16-.204.318-.343.47.11-.056.237-.117.365-.172l.117-.05c1.047-.569 2.084-1.746 2.503-2.565.418-.819.246-1.77.135-2.278-.475.412-1.159 1.223-1.457 1.666-.366.541-.835 1.309-1.126 1.934v.019zM8.672 15.733c-.43.441-1.339 1.432-1.254 2.507 0 0 .844-.27 1.191-.905.349-.633.563-1.03.709-1.173a.938.938 0 01-.279-.003l-.076-.013c-.214.4-.639 1.054-1.02 1.282 0 0-.098-.53 1.025-1.604a.903.903 0 01.07-.15.943.943 0 01-.351.058M20.24 9.783c-.214.485-.566.983-1.524 1.655-.215.15-.452.463-.272.904.18.44.52 1.064.316 1.308-.203.243-.925.37-1.514.128 0 0-.123.38-.338.625 0 0 .1.21.44.104 0 0-.123.312.046.649 0 0 .395-.07.564-.441 0 0 .158.29.476.394 0 0 .26-.138.203-.673 0 0 .19.476.78.556 0 0 .339-.439-.103-1.03 0 0 .317.29.893.15 0 0 .09-.3-.43-.717 0 0 .589-.023.815-.533 0 0-.249-.313-.859-.243 0 0 .564-.128.689-.822 0 0-.407-.267-1.05.162 0 0 .112-.22.383-.44s.6-.834.486-1.736zm-2.363 6.983a1.82 1.82 0 00.197-.345c-.1.843-.138 1.41-.582 1.956 0 0-.267-.365-.096-1.252a.854.854 0 00.24-.114s-.101.36-.038.722c0 0 .162-.119.279-.967zm.766-.086a2.58 2.58 0 00.21-.318c.036.49.162 1.776-.26 2.18 0 0-.288-.217-.39-2.095.062.105.169.217.22.279 0 0-.069.595.14 1.016 0 0 .208-.163.08-1.063zm1.005.982c-.355-.433-.46-1.734-.46-1.734a1.823 1.823 0 01-.206-.163c0 .047-.001.096-.005.145.05.783.111 1.59.349 1.991.233.394.663.598.663.598.403-.734-.084-1.72-.492-2.404-.05-.02-.1-.044-.151-.07.142.526.415 1.154.302 1.637zm.998-2.256a.56.56 0 01-.041.241c.335.34.587.664 1.086 1.376.501.712 1.293.74 1.293.74-.075-.577-.229-1.032-.653-1.524-.424-.49-.966-.94-1.365-1.236a.737.737 0 01-.445.051.646.646 0 01.104.21c.301.178 1.18.633 1.533 1.367 0 0-.555-.18-1.512-1.225zm.629-.718l-.034-.062a.491.491 0 00-.035-.055c.326.13 1.487.578 1.862.777.375.2.917.652 1.212 1.572 0 0-.782.071-1.429-.476-.645-.55-1.4-1.313-1.72-1.556a.68.68 0 00.075-.085s.875.793 1.798 1.136c0 0-.197-.368-.561-.635-.446-.323-.779-.432-1.168-.616zm.663-.544a.912.912 0 00-.039-.09c.384.08 1.341.198 1.77.331.425.136 1.2.456 1.658 1.353 0 0-.673.213-1.945-.4-1.271-.613-1.668-.74-1.91-.806a.88.88 0 00.4-.126c.508.231 1.186.504 1.858.523 0 0-.332-.24-.68-.391a8.989 8.989 0 00-1.112-.394zm-.034-.644c-.125.06-.22.09-.383.106.089.06.174.134.25.235.447.132 1.21.276 2.47.37 1.259.092 1.93-.145 1.93-.145a5.57 5.57 0 00-1.61-.648c-.475-.094-1.718-.083-2.263-.16a1.483 1.483 0 01-.179.129c.46.041 1.435.088 1.939.35 0 0-.93.127-2.154-.237z" fill="#fff"/><path fill-rule="evenodd" clip-rule="evenodd" d="M18.08 15.048a2.508 2.508 0 01-.113-.11c-.064.083-.282.362-.39.642a8.31 8.31 0 00-.21.747c-.046.184-.174.57-.253.703 0 0 .346.044.601-.262.251-.3.336-.601.377-.91.029-.243.02-.579-.012-.81zm.544.047c-.064.088-.125.123-.131.127l-.046.025-.05-.017a.785.785 0 01-.118-.049 1.27 1.27 0 00-.083.333c-.017.162-.047.416.01.624.074.253.22.408.303.505 0 0 .226-.255.291-.464.067-.22.091-.475.01-.737a1.074 1.074 0 00-.186-.347zm.777.024a1.137 1.137 0 01-.538-.216c-.028.083-.075.195-.04.354.033.16.14.335.297.462.23.19.543.37.887.315 0 0 .079-.265-.606-.915zm.259-.443a.851.851 0 01-.146.395c.08.098.37.609.978.524 0 0 .162-.348-.24-.625-.274-.187-.404-.225-.592-.294zm-.053-.436c.162.042.373.059.63-.004l.07-.016.02-.07c.311.26.68.304.807.54 0 0-.155.292-.557.245a1.342 1.342 0 01-.924-.521 1.129 1.129 0 00-.046-.174zm.698-.364c-.058-.087-.099-.223-.218-.36.269-.047.508-.05.82.012.372.07.752.16.942.742 0 0-.24.208-.674.118-.367-.078-.687-.24-.87-.512zm.159-.628a.963.963 0 00.242-.331l.03-.073c.323-.135.66-.204.987-.079.33.127.416.271.501.398 0 0-.365.313-.785.323-.419.015-.807-.11-.975-.238zm-.099-.68a1.19 1.19 0 00-.188-.056c.143-.128.284-.325.352-.619.15.036.501.036.656-.024a.82.82 0 01.696.097s-.077.427-.616.573c-.508.136-.694.1-.9.03zm.195-.832l-.07-.046a.75.75 0 00-.337-.1c.175-.13.585-.485.879-.655.318-.183.846-.426 1.117-.462 0 0-.253.678-.548.952-.304.285-.518.39-1.04.31zm-.543-.312c.13-.171.23-.407.306-.687.061-.227.2-.79.283-.936.084-.146.38-.656.96-.816 0 0 .155.667-.137 1.192-.253.455-.768.933-1.412 1.247zm-3.224 3.094a.887.887 0 01-.258.182s-.186.362.04.8c.223.438.413.884.504 1.133 0 0 .121-.018.255-.703.09-.465.206-.58.324-.74-.13.067-.234.087-.244.09l-.09.015-.04-.082a.93.93 0 01-.104-.436c0-.041.002-.08.006-.116a.425.425 0 01-.361-.157l-.011-.014-.02.028z" fill="#fff"/><path fill-rule="evenodd" clip-rule="evenodd" d="M20.392 15.733c.43.441 1.34 1.432 1.253 2.507 0 0-.845-.27-1.19-.905-.35-.633-.563-1.03-.709-1.173a.937.937 0 00.278-.003l.078-.013c.213.4.638 1.054 1.02 1.282 0 0 .097-.53-1.026-1.604a1.003 1.003 0 00-.07-.15c.102.039.22.06.35.058m-6.503-8.571c0-.079.296-.144.66-.144.364 0 .659.065.659.144 0 .079-.295.144-.66.144-.363 0-.659-.065-.659-.144zm.787.317a.13.13 0 01-.129.133.133.133 0 010-.266c.073 0 .13.06.13.133zm-.835-.458c-.218-.535-.365-.931-.36-1.063.004-.08.097-.14.185-.167.087-.028.164-.034.222.012.115.09.22.813.26 1.114a.909.909 0 00-.307.104zm.402-.115c.055-.008.112-.01.17-.013a7.695 7.695 0 00-.189-.953c-.057-.19-.13-.325-.251-.36 0 0 .094.264.146.535.051.272.09.532.124.79zm-.694.958c.242-.058.49-.323.49-.323-.39.057-.49.323-.49.323zm.363-.024c-.338.201-.715.171-.715.171.073-.137.142-.264.352-.418.211-.155.556-.194.69-.175a.9.9 0 01-.327.422zm-1.26.569V8.38c-.331.043-.722.026-.722.026.02.126.071.222.159.28.02-.275.563-.278.563-.278zm-1.1-.365s.42.16.84.14c.417-.022 1.19-.031 1.44-.156 0 0-.041.162-.24.255 0 0 .105 0 .207.092 0 0-.06.133-.238.204 0 0 .32.34.662.315 0 0-.158.201-.508.124-.35-.077-.463-.278-.522-.356 0 0 .046.193.024.27 0 0-.154-.01-.274-.164 0 0 .087.155.106.285 0 0-.097.011-.27-.093 0 0 .036.096.043.206 0 0-.405-.132-.601-.32 0 0-.002.13.007.203 0 0-.628-.065-.676-1.005zm-.095.067c.016.203.067.403.136.545 0 0-.247-.19-.307-.352-.062-.16-.077-.271.171-.194zm-.497.772a.104.104 0 00.105-.105.105.105 0 00-.105-.106c-.055 0-.1.047-.1.106s.045.105.1.105zm.605-.124c.166.078.313.26.313.26-.25.06-.361.133-.361.133-.48-.347-.875.002-.875.002-.26-.15-.31-.518-.18-.713.13-.195.422-.161.56-.127.089.285.395.376.543.445zm.366.322s.174.24.303.345c0 0-.646-.007-.809.566 0 0-.224-.35-.06-.58.176-.246.337-.276.566-.33z" fill="#fff"/><path fill-rule="evenodd" clip-rule="evenodd" d="M12.625 9.224s.209.063.278.082c0 0 .002-.124-.002-.183.063.015.141.036.208.042 0 0 .208.477.37.669 0 0 .01.105-.08.266 0 0-.119-.282-.33-.508-.12-.126-.196-.19-.444-.368zm-.548-.101c.068.018.401.125.56.244.204.148.343.319.32.612 0 0-.162-.233-.343-.337a2.054 2.054 0 01-.537-.52zm.003-2.153c.062 0 .18.03.18.13 0 .103-.153.348-.195.457h-.004c-.04-.109-.197-.354-.197-.457 0-.1.12-.13.182-.13h.034zm-.137.79c-.029-.142-.084-.513-.17-.594-.08-.079-.202-.086-.261-.083a.115.115 0 00-.1.15c.025.086.292.496.327.548.062-.011.05-.007.204-.02zm.24 0c.03-.142.084-.513.17-.594.08-.079.202-.086.261-.083a.116.116 0 01.1.15c-.026.086-.293.496-.328.548-.061-.011-.05-.007-.203-.02zm.171-1.288h-.21v-.235h-.167v.235h-.21v.15h.21v.276h.168v-.276h.209v-.15zM9.829 7.995c0-.047.002-.092.009-.137a1.06 1.06 0 00.005-.295c-.15.06-.252.096-.46.438 0 0 .33-.208.446-.006z" fill="#fff"/><path fill-rule="evenodd" clip-rule="evenodd" d="M10.114 8.535c.004-.084.06-.352.128-.54.084-.233.035-.57-.067-.774a1.094 1.094 0 01-.135-.586s-.193.067-.306.138c-.018.237.117.474.181.608.076.16.06.367.044.494a.951.951 0 00.155.66zm.023-1.809a.267.267 0 01.007-.132s.307-.307.565-.358a.344.344 0 01.312.08s-.09-.01-.228.105c-.139.114-.31.252-.438.287-.129.034-.155.024-.218.018zm.91-.386c.114.118.212.244.21.352-.002.113-.13.395-.196.502-.067.108-.165.249-.154.42.006.085.065.172.133.245 0 0-.376-.091-.423-.33-.04-.212.05-.36.11-.479.056-.111.229-.369.273-.477.04-.097.061-.179.047-.233zm2.197 2.68c.075.274.203.53.329.73.113.185.185.482.174.584 0 0 .17-.385.084-.656-.069-.21-.25-.526-.587-.657zm.425.09s.258.006.379.087c.154.104.302.334.359.609 0 0-.26-.047-.39-.178-.129-.132-.288-.33-.348-.518zm-1.337.478c-.05.004-.182.035-.246.055 0 0 .22.066.33.159.093.079.174.2.21.407.055.288.22.597.268.69l.02-.003c-.03-.198.09-.61.123-.67 0 0-.175-.11-.256-.227-.059-.086-.162-.228-.449-.411zm1.141.617c.064.151.235.419.155.697-.08.28-.258.4-.368.637 0 0-.086-.428-.068-.757.02-.33.137-.458.281-.577zm.497.01s.256.51.303.71a.51.51 0 01-.085.45c-.086.119-.234.248-.37.5 0 0-.159-.214-.178-.326-.018-.112.012-.38.046-.491.034-.114.169-.475.284-.843zm.132 1.628c-.055.062-.355.431-.395.539-.04.107-.11.31-.018.453.094.141.308.366.493.462 0 0-.202-.324-.18-.59.011-.17.14-.32.165-.425a.751.751 0 00-.065-.44zm-.588-.205a.855.855 0 01.137.379c.011.152-.013.275-.095.498a6.519 6.519 0 01-.335.738s-.14-.207-.218-.39c0 0 .22-.31.314-.528.108-.257.153-.495.197-.697zm-.101-.118s-.095.726-.512 1.264c-.282.364-.511.492-.663.492-.228 0-.459-.195-.535-.42-.078-.222-.052-.57.096-.692 0 0 .136.435.43.45.331.02.757-.361 1.184-1.094z" fill="#fff"/><path fill-rule="evenodd" clip-rule="evenodd" d="M13.073 11.217c.035.13.046.328 0 .516-.034.143-.119.329-.282.433-.14.09-.474.112-.6-.21 0 0 .607.047.882-.74zm.993 2.923c.082.218.378.494.378.664-.005.45-.198.727-.244.875 0 0-.352-.286-.415-.614-.032-.17.005-.675.28-.925zm-.4.32c.04-.117.171-.436.32-.547 0 0 .192-.579-.424-.935 0 0-.254.345-.32.669-.068.326.267.52.424.813zm-.768-1.462c-.099.124-.24.293-.348.346 0 0-.037.258-.017.43.033.256.192.515.26.706 0 0 .27-.361.301-.573.03-.213.027-.387.037-.49 0 0-.15-.25-.233-.419zm-.713 1.241c-.077-.12-.322-.558-.326-.876 0 0 .304.165.559.043 0 0 .033.415-.015.555a.557.557 0 01-.218.278zm.07.087c.05-.044.17-.159.222-.219 0 0 .201.38.236.49 0 0-.101.027-.213-.055a1.666 1.666 0 01-.245-.216zm.938-.222c-.024.096-.35.56-.407.617 0 0 .024.168.146.41.12.242.289.412.379.497 0 0 .202-.36.262-.517.066-.182.06-.36.03-.427-.068-.157-.304-.383-.41-.58zm.487 1.215c.073.149.29.394.324.588a.697.697 0 01-.037.383c-.041.103-.17.308-.258.464 0 0-.298-.288-.364-.494a.74.74 0 01.04-.512c.072-.138.227-.287.296-.43zm-.843-.042c.076.173.261.345.303.496.05.18.066.292-.019.5-.075.182-.165.29-.195.4 0 0-.242-.32-.283-.454a.915.915 0 01-.003-.492c.048-.141.137-.322.197-.45zm1.192 1.223s-.417.516-.408.79c.013.34.233.567.264.776 0 0 .218-.254.302-.424.093-.19.164-.353.141-.57-.026-.216-.082-.355-.3-.572zm-.765-.05c.066.099.252.436.2.636-.053.202-.258.484-.328.604 0 0-.164-.346-.201-.505-.037-.157-.003-.417.33-.735zm1.269-9.848c.029-.194.248-.61.248-.792a.255.255 0 00-.252-.258.255.255 0 00-.253.258c0 .182.222.598.249.792h.008zm.705.418c.22-.535.365-.931.36-1.063-.004-.08-.097-.14-.183-.167-.089-.028-.167-.034-.225.012-.113.09-.22.813-.26 1.114a.89.89 0 01.308.104zm-.4-.115c-.055-.008-.112-.01-.17-.013a7.64 7.64 0 01.19-.953c.056-.19.128-.325.25-.36 0 0-.094.264-.145.535-.051.272-.09.532-.124.79zm.208.635s.246.265.49.323c0 0-.1-.266-.49-.323zm-.202-.123c.136-.019.48.02.691.175.212.154.28.28.352.418 0 0-.378.03-.715-.17a.915.915 0 01-.328-.423zm2.15 1.269c.088-.058.138-.154.16-.28 0 0-.392.017-.725-.026v.028s.544.002.565.278zm-.139.362c.01-.074.006-.204.006-.204-.196.189-.6.321-.6.321.006-.11.04-.206.04-.206-.17.104-.267.093-.267.093.018-.13.106-.285.106-.285a.414.414 0 01-.275.164c-.021-.077.025-.27.025-.27-.06.078-.171.279-.522.356-.352.077-.508-.124-.508-.124.342.024.662-.315.662-.315a.445.445 0 01-.238-.204c.103-.092.208-.092.208-.092-.2-.093-.242-.255-.242-.255.25.125 1.023.134 1.443.156.419.02.836-.14.836-.14-.047.94-.674 1.005-.674 1.005zm.772-.938a1.592 1.592 0 01-.136.545s.248-.19.307-.352c.06-.16.076-.271-.171-.194zm.594.667a.105.105 0 00-.104-.106.105.105 0 00-.102.106c0 .059.046.105.102.105a.105.105 0 00.104-.105zm-.164-.464c.139-.034.431-.068.56.127.132.195.08.563-.18.713 0 0-.396-.349-.874-.002 0 0-.112-.073-.363-.132 0 0 .148-.183.315-.26.147-.07.454-.16.542-.446zm-.907.767s-.173.24-.301.345c0 0 .645-.007.808.566 0 0 .224-.35.06-.58-.176-.246-.337-.276-.567-.33z" fill="#fff"/><path fill-rule="evenodd" clip-rule="evenodd" d="M16.44 9.224s-.209.063-.278.082c0 0-.004-.124.003-.183-.063.015-.14.036-.208.042 0 0-.209.477-.37.669 0 0-.01.105.08.266 0 0 .118-.282.328-.508.12-.126.197-.19.445-.368zm.55-.101c-.065.018-.399.125-.561.244-.2.148-.34.319-.319.612 0 0 .164-.233.344-.337.143-.084.401-.315.536-.52zm-.004-2.153c-.061 0-.181.03-.181.13 0 .103.155.348.196.457h.004c.041-.109.196-.354.196-.457 0-.1-.12-.13-.181-.13h-.034zm.136.79c.028-.142.082-.513.17-.594.08-.079.2-.086.261-.083a.113.113 0 01.098.15c-.024.086-.292.496-.327.548-.062-.011-.05-.007-.202-.02zm-.239 0c-.03-.142-.084-.513-.17-.594-.082-.079-.203-.086-.262-.083a.115.115 0 00-.098.15c.024.086.29.496.327.548.061-.011.05-.007.203-.02zm-.169-1.288h.208v-.235h.167v.235h.21v.15h-.21v.276h-.167v-.276h-.208v-.15zM14.24 5.074h.208v-.236h.17v.236h.208v.148h-.208V5.5h-.17v-.278h-.208v-.148zm4.996 2.921a1.781 1.781 0 00-.01-.137 1.112 1.112 0 01-.006-.295c.151.06.252.096.46.438 0 0-.33-.208-.444-.006z" fill="#fff"/><path fill-rule="evenodd" clip-rule="evenodd" d="M18.948 8.535a2.63 2.63 0 00-.126-.54c-.085-.233-.037-.57.064-.774.098-.196.153-.382.135-.586 0 0 .195.067.307.138.018.237-.116.474-.18.608-.077.16-.061.367-.044.494a.958.958 0 01-.156.66zm-.018-1.809a.3.3 0 00-.008-.132s-.306-.307-.564-.358a.346.346 0 00-.313.08s.091-.01.23.105c.137.114.307.252.437.287.129.034.157.024.219.018zm-.913-.386c-.114.118-.211.244-.21.352.002.113.13.395.196.502.068.108.165.249.153.42-.005.085-.064.172-.131.245 0 0 .376-.091.42-.33.042-.212-.046-.36-.107-.479-.056-.111-.23-.369-.273-.477-.04-.097-.062-.179-.048-.233zm-2.194 2.68c-.077.274-.204.53-.33.73-.114.185-.186.482-.172.584 0 0-.171-.385-.084-.656.066-.21.248-.526.586-.657zm-.425.09s-.257.006-.377.087c-.156.104-.305.334-.36.609 0 0 .26-.047.39-.178.129-.132.287-.33.347-.518zm1.332.478c.05.004.182.035.247.055 0 0-.22.066-.329.159a.65.65 0 00-.213.407c-.052.288-.218.597-.268.69l-.018-.003c.03-.198-.09-.61-.122-.67 0 0 .175-.11.254-.227.058-.086.163-.228.45-.411zm-1.14.617c-.063.151-.234.419-.156.697.08.28.26.4.369.637 0 0 .087-.428.068-.757-.02-.33-.136-.458-.281-.577zm-1.053.782c.012-.164.381-.558.363-.77-.02-.215-.296-.365-.364-.396h-.004c-.067.031-.345.181-.364.395-.02.213.35.607.362.771h.007zm.557-.772s-.257.51-.303.71a.509.509 0 00.084.45c.086.119.233.248.372.5 0 0 .157-.214.177-.326a1.533 1.533 0 00-.046-.491c-.034-.114-.17-.475-.284-.843zm-.557 1.972a1.03 1.03 0 00.255-.349c.032-.09.04-.224-.038-.326-.093-.122-.21-.258-.217-.37h-.006c-.009.112-.124.248-.217.37-.079.102-.07.235-.036.326.032.092.137.246.254.35h.005zm.424-.344c.056.062.356.431.396.539.04.107.11.31.017.453-.094.141-.307.366-.494.462 0 0 .202-.324.182-.59-.014-.17-.142-.32-.166-.425a.77.77 0 01.065-.44zm.589-.205a.867.867 0 00-.138.379c-.01.152.015.275.096.498.103.282.261.596.334.738 0 0 .141-.207.219-.39 0 0-.22-.31-.314-.528-.108-.257-.153-.495-.197-.697zm.103-.118s.095.726.511 1.264c.282.364.511.492.663.492.228 0 .459-.195.536-.42.076-.222.052-.57-.096-.692 0 0-.137.435-.43.45-.33.02-.757-.361-1.184-1.094z" fill="#fff"/><path fill-rule="evenodd" clip-rule="evenodd" d="M15.996 11.217a1.12 1.12 0 000 .516c.035.143.12.329.283.433.14.09.471.112.599-.21 0 0-.606.047-.882-.74zm-1.462 2.153c.086-.043.158-.074.258-.228.076-.121.149-.345.108-.505-.052-.197-.155-.276-.218-.4-.05.05-.082.088-.145.124h-.003c-.063-.036-.096-.074-.148-.123-.064.123-.165.202-.218.399-.04.16.032.384.109.505.098.154.171.185.257.228zm-.001 1.225c.04-.194.434-.565.397-.767-.054-.303-.244-.239-.394-.367h-.003c-.152.128-.344.064-.399.367-.035.203.356.574.397.767h.002zM15 14.14c-.082.218-.38.494-.377.664.006.45.197.727.243.875 0 0 .353-.286.414-.614.034-.17-.004-.675-.28-.925zm.394.32c-.04-.117-.17-.436-.32-.547 0 0-.192-.579.425-.935 0 0 .254.345.322.669.067.326-.27.52-.427.813zm.774-1.462c.098.124.237.293.347.346 0 0 .036.258.016.43-.032.256-.192.515-.26.706 0 0-.27-.361-.302-.573-.031-.213-.024-.387-.034-.49 0 0 .148-.25.233-.419zm.709 1.241c.077-.12.325-.558.328-.876 0 0-.304.165-.56.043 0 0-.032.415.018.555a.54.54 0 00.214.278zm-.067.087a2.635 2.635 0 01-.22-.219s-.203.38-.236.49c0 0 .1.027.21-.055.111-.083.136-.106.246-.216zm-.936-.222c.024.096.35.56.407.617 0 0-.026.168-.147.41-.12.242-.287.412-.378.497 0 0-.201-.36-.261-.517-.069-.182-.06-.36-.03-.427.067-.157.304-.383.409-.58zm-1.34 2.749c.031-.127.22-.279.297-.5a.532.532 0 00-.005-.388c-.06-.121-.27-.42-.295-.505-.026.085-.235.383-.295.505a.531.531 0 00-.006.388c.079.221.267.373.298.5h.006zm.85-1.534c-.07.149-.288.394-.323.588a.718.718 0 00.037.383c.04.103.173.308.258.464 0 0 .298-.288.364-.494a.736.736 0 00-.041-.512c-.071-.138-.226-.287-.295-.43zm.844-.042c-.077.173-.262.345-.304.496-.05.18-.066.292.018.5.076.182.165.29.197.4 0 0 .241-.32.28-.454a.907.907 0 00.006-.492c-.05-.141-.138-.322-.197-.45zm-1.695 4.04c.015-.157.332-.643.346-1.158.008-.259-.216-.661-.344-.815h-.007c-.126.154-.35.556-.343.815.015.515.331 1.001.348 1.158zm.505-2.817s.416.516.407.79c-.012.34-.235.567-.265.776 0 0-.219-.254-.301-.424-.094-.19-.165-.353-.139-.57.023-.216.078-.355.298-.572zm.766-.05c-.067.099-.251.436-.2.636.055.202.26.484.327.604 0 0 .164-.346.202-.505.037-.157.002-.417-.33-.735z" fill="#fff"/><path fill-rule="evenodd" clip-rule="evenodd" d="M14.814 20.143c.025-.4.248-.64.286-.848a.892.892 0 00-.144-.714 6.613 6.613 0 01-.417 1.1l-.01.022c-.002-.007-.004-.015-.01-.021a6.563 6.563 0 01-.414-1.1.895.895 0 00-.146.713c.04.208.26.448.286.848.025.402-.416.554-.416.554.148.056.318.08.587-.181a.585.585 0 00.114-.154.578.578 0 00.114.154c.268.261.438.237.587.181 0 0-.441-.152-.417-.554zm-1.384-2.664c.045.15.182.427.2.512.033.159-.012.351-.295.556 0 0-.183-.132-.255-.304-.068-.162-.028-.277.042-.36.07-.083.237-.278.307-.404zm.594.594c0 .08-.058.534-.183.76-.177.317-.437.55-.665.55-.21 0-.255-.128-.359-.18 0 0 .053-.275.29-.346.291-.09.736-.447.917-.784z" fill="#fff"/><path fill-rule="evenodd" clip-rule="evenodd" d="M13.263 18.65c-.049-.04-.091-.065-.15-.135 0 0-.223.085-.408.212-.185.128-.366.345-.464.458 0 0 .277.073.452-.009 0 0 .064-.27.261-.392.044-.026.182-.068.309-.135zm-.226-.232c-.044-.068-.132-.194-.113-.392 0 0-.39.254-.503.348a3.329 3.329 0 00-.416.44s.295-.066.52-.144c.248-.084.42-.197.512-.252zm-.659.43c-.209.078-.681.155-.878.215-.197.06-.34.164-.528.374 0 0 .289.084.444.133 0 0 .246-.171.514-.277.176-.07.262-.257.448-.445zm-.438 1.427c.046-.052.103-.11.059-.23-.03-.09-.202-.185-.303-.235-.17-.083-.638-.212-.792-.258 0 0-.076.09-.116.187-.018.037.005.076.072.088.13.023.444-.037.522.014.08.055.051.129.051.204 0 0 .144-.092.234-.07.126.026.202.088.273.3zm-.419-.67c.034.011.217.068.396.184 0 0 .078-.031.118-.106.038-.07.197-.314.346-.347 0 0-.126-.012-.199-.035 0 0-.151.04-.26.085a2.414 2.414 0 00-.4.219zm1.211-.307c-.028.014-.076.038-.186.043 0 0-.412.292-.46.586-.04.248.088.369.15.4.061.032.35.153.537-.243 0 0-.32.108-.406-.049-.087-.158.055-.387.141-.453a.663.663 0 01.442-.124s-.1-.098-.218-.16z" fill="#fff"/><path fill-rule="evenodd" clip-rule="evenodd" d="M10.033 22.65c.05-.215.106-.44.202-.647.186-.405.643-1.48 1.595-1.671.09-.017-.103-.245-.188-.233-.086.01-.255.123-.33.175 0 0 0-.23-.003-.271-.002-.043-.038-.056-.075-.055-.037 0-.267-.001-.34.084-.217.258-.584.95-.791 1.466-.208.515-.349.674-.568.595-.22-.08-.35-.338-.732-.26a.755.755 0 00-.395.254c.032.063.073.14.252.14.178 0 .518.076.708.212.192.137.391.181.665.212zm3.802-3.335c.022.167.1.323.188.485 0 0-.291 1.37-1.338 1.477 0 0 .02-.284.33-.501.31-.216.775-.553.741-1.062 0 0-.082.017-.232.209-.148.19-.475.742-.982.746 0 0 .076-.258.3-.407.224-.149.509-.34.638-.57.13-.229.265-.335.355-.377zm-.496 4.995l.638.916.484-.881-.172-.315c-.126.232-.261.482-.338.619-.06-.084-.221-.316-.432-.619l-.18.28z" fill="#fff"/><path fill-rule="evenodd" clip-rule="evenodd" d="M13.177 23.534c-.623-.892-1.39-1.996-1.469-2.108l.241-.178-.76-.298.014.85.257-.19 1.536 2.205.181-.281zm-5.248-5.013c.187-.21.505-.028.825.275.324.303.525.614.339.823-.175.195-.506.029-.83-.274-.321-.303-.524-.614-.334-.824z" fill="#fff"/><path fill-rule="evenodd" clip-rule="evenodd" d="M8.45 22.248a.862.862 0 01-.299-.674.89.89 0 01.878-.899c.484 0 .876.404.876.9 0 .067-.013.176-.013.176.04-.076.184-.42.214-.483a1.125 1.125 0 00-1.077-.838c-.441 0-.824.263-1.005.644.068-.454.289-.861.444-1.012.187-.18.505-.238.505-.238-.209.035-.483-.097-.79-.387-.292-.273-.44-.512-.45-.712.018.282.01.44-.07.67-.105.313-.394.89-.29 1.543.056.358.31.891.734 1.327a.62.62 0 01.134.317s.624 0 .772.014c0 0 .15-.014.147-.109-.002-.095-.085-.119-.159-.119s-.384.008-.55-.12zm3.455.218a6.171 6.171 0 01-1.184.288 3.558 3.558 0 01-.722.04.227.227 0 01-.019.13s.047.056.047.118c.236.008.48-.005.73-.045a6.132 6.132 0 001.294-.323l-.146-.208zm.657-.031c.534-.297 1.054-.759 1.524-1.494l.083-.144c-.128.058-.291.016-.291.016a.62.62 0 00-.04.066c-.438.662-.922 1.078-1.417 1.35l.141.206zm-3.516.235a2.133 2.133 0 00-.447.015c-.154.025-.33.056-.348.144-.017.083.039.17.116.295.048.077.163.033.226.009s.424-.222.481-.287c.059-.065.083-.158-.028-.177zm.367.243a.265.265 0 00-.23-.024c-.098.037-.453.252-.476.354-.025.1.025.15.08.172a.707.707 0 00.17.05.275.275 0 00.222-.103c.045-.058.212-.264.234-.31.024-.046.037-.113 0-.139zm.045.227a4.1 4.1 0 00-.213.266c-.016.03.01.076.054.07.044-.004.29-.03.43-.128s.235-.29.137-.357c-.096-.069-.247-.037-.408.148zm.078-.547c-.047-.01-.233-.058-.272.004-.05.078-.015.161.129.233.143.069.413.126.468.05.052-.077-.022-.205-.325-.287zm6.096-5.114c-.046.15-.183.427-.201.512-.032.159.011.351.295.556 0 0 .182-.132.255-.304.069-.162.03-.277-.041-.36a3.4 3.4 0 01-.308-.404zm-.595.594c0 .08.058.534.185.76.177.317.436.55.664.55.211 0 .256-.128.359-.18 0 0-.053-.275-.29-.346-.29-.09-.736-.447-.918-.784z" fill="#fff"/><path fill-rule="evenodd" clip-rule="evenodd" d="M15.8 18.65c.049-.04.09-.065.148-.135 0 0 .226.085.41.212.184.128.364.345.464.458 0 0-.277.073-.453-.009 0 0-.064-.27-.262-.392-.042-.026-.18-.068-.307-.135zm.227-.232c.044-.068.132-.194.111-.392 0 0 .39.254.506.348.118.099.36.356.415.44 0 0-.295-.066-.521-.144-.247-.084-.418-.197-.51-.252zm.659.43c.21.078.68.155.878.215.197.06.341.164.53.374 0 0-.292.084-.445.133 0 0-.246-.171-.516-.277-.175-.07-.261-.257-.447-.445zm.439 1.427c-.045-.052-.102-.11-.06-.23.032-.09.204-.185.306-.235.17-.083.639-.212.79-.258 0 0 .077.09.118.187.017.037-.008.076-.072.088-.132.023-.445-.037-.523.014-.081.055-.053.129-.053.204 0 0-.141-.092-.234-.07-.123.026-.201.088-.272.3zm.416-.67c-.034.011-.216.068-.395.184 0 0-.079-.031-.118-.106-.037-.07-.198-.314-.345-.347 0 0 .125-.012.196-.035 0 0 .153.04.263.085.108.045.242.114.4.219zm-1.209-.307c.029.014.077.038.186.043 0 0 .413.292.46.586.044.248-.085.369-.148.4-.063.032-.35.153-.536-.243 0 0 .318.108.405-.049.086-.158-.054-.387-.14-.453a.667.667 0 00-.444-.124s.1-.098.217-.16z" fill="#fff"/><path fill-rule="evenodd" clip-rule="evenodd" d="M19.032 22.65a3.286 3.286 0 00-.202-.647c-.185-.405-.642-1.48-1.596-1.671-.089-.017.102-.245.19-.233.085.01.255.123.33.175 0 0 0-.23.002-.271.003-.043.038-.056.074-.055.037 0 .267-.001.34.084.218.258.584.95.792 1.466.208.515.35.674.568.595.22-.08.352-.338.732-.26.133.029.28.12.396.254-.033.063-.074.14-.251.14-.18 0-.521.076-.71.212-.191.137-.39.181-.665.212zm-3.803-3.335c-.02.167-.1.323-.185.485 0 0 .29 1.37 1.339 1.477 0 0-.022-.284-.332-.501-.312-.216-.775-.553-.742-1.062 0 0 .083.017.231.209.151.19.478.742.983.746 0 0-.075-.258-.299-.407-.224-.149-.51-.34-.639-.57-.128-.229-.263-.335-.356-.377zm-.695 1.331c.062.182.457.756.63.92.175.163.598.597.824.814 0 0-.644-.164-1.006-.5 0 0-.258.153-.446.153h-.009c-.188 0-.446-.154-.446-.154-.362.337-1.005.5-1.005.5.225-.216.648-.65.822-.814.175-.163.572-.737.632-.919h.004z" fill="#fff"/><path fill-rule="evenodd" clip-rule="evenodd" d="M14.536 22.166a.901.901 0 00.354-.091c-.077.164-.22.42-.357.524h-.002c-.137-.105-.28-.36-.355-.524.075.034.21.091.352.091h.008z" fill="#fff"/><path fill-rule="evenodd" clip-rule="evenodd" d="M15.09 25.224l2.517-3.615.256.19.016-.85-.763.3.242.177-2.243 3.222-1.14-2.118-.141.22-1.015 1.572-.254-.174-.003.836.77-.313-.259-.175.875-1.355 1.141 2.084z" fill="#fff"/><path fill-rule="evenodd" clip-rule="evenodd" d="M15.546 23.804l-.428-.664c-.063.122-.193.36-.337.624l-.18-.33.49-.905.142.22.504.781-.19.274zm.519.235l.181.282.254-.174.004.836-.77-.313.257-.175c-.027-.042-.066-.106-.117-.184l.191-.272zm5.071-5.518c-.188-.21-.506-.028-.829.275-.32.303-.523.614-.336.823.174.195.508.029.83-.274.32-.303.524-.614.335-.824z" fill="#fff"/><path fill-rule="evenodd" clip-rule="evenodd" d="M20.618 22.248l.03-.026c.17-.153.27-.39.27-.647a.89.89 0 00-.88-.9.889.889 0 00-.875.9c0 .067.012.176.012.176-.039-.076-.184-.42-.213-.483.13-.482.563-.838 1.077-.838.441 0 .824.263 1.004.644-.068-.454-.287-.861-.444-1.012-.186-.18-.504-.238-.504-.238.208.035.482-.097.79-.387.291-.273.442-.512.45-.712-.018.282-.01.44.067.67.107.313.397.89.294 1.543-.057.358-.31.891-.733 1.327a.605.605 0 00-.135.317s-.626 0-.775.014c0 0-.147-.014-.145-.109.003-.095.084-.119.16-.119.072 0 .384.008.55-.12zm-4.117.186c-.532-.299-1.052-.757-1.522-1.493l-.084-.144c.129.058.293.017.293.017a.64.64 0 01.039.065c.437.66.922 1.078 1.417 1.351l-.143.204zm.659.032c.402.149.803.23 1.183.289.248.038.491.052.722.04a.228.228 0 00.019.13s-.046.056-.046.118a3.753 3.753 0 01-.732-.045c-.413-.066-.853-.151-1.291-.323l.144-.21zm2.857.204c.075-.013.31-.006.449.015.153.025.328.056.347.144.017.083-.038.17-.115.295-.05.077-.164.033-.226.009-.064-.024-.425-.222-.484-.287-.056-.065-.08-.158.03-.177zm-.369.243a.27.27 0 01.233-.024c.097.037.452.252.476.354.024.1-.025.15-.08.172a.703.703 0 01-.171.05.274.274 0 01-.22-.103 5.36 5.36 0 01-.238-.31c-.022-.046-.034-.113 0-.139zm-.04.227c.051.059.196.237.212.266.018.03-.009.076-.054.07-.045-.004-.289-.03-.43-.128-.14-.098-.233-.29-.136-.357.094-.069.246-.037.408.148zm-.078-.547c.046-.01.232-.058.271.004.05.078.014.161-.13.233-.141.069-.412.126-.466.05-.053-.077.022-.205.325-.287z" fill="#fff"/><mask id="a" maskUnits="userSpaceOnUse" x="0" y="0" width="60" height="30"><path d="M0 30h60V0H0v30z" fill="#fff"/></mask><g mask="url(#a)" fill-rule="evenodd" clip-rule="evenodd"><path d="M30.874 30H60V.15H30.874V30z" fill="#CC003D"/><path d="M54.346 9.607c.002-.132.026-1.057.028-1.182h.22c.849 0 .992.154 1.07 1.181h-1.318zm2.416-.514c-.133-1.15-.66-1.748-1.905-1.748h-1.582l-.215 6.495h1.153l.112-3.155 1.457.002c.014.13.232 3.153.232 3.153h1.19s-.41-4.462-.442-4.747zm-16.409 9.435c.002-.131.026-1.056.028-1.18l.207-.014c.85 0 1.004.167 1.084 1.194h-1.32zm2.416-.513c-.133-1.15-.66-1.748-1.905-1.748h-1.582l-.216 6.495h1.154l.112-3.155 1.457.001c.014.132.232 3.154.232 3.154h1.19s-.41-4.462-.442-4.747zm-8.652-10.67v6.494h1.166V8.425h1.444v5.414h1.168V7.345h-3.778zm12.331 2.262h-.635c-.262 0-.457-.06-.58-.182a.456.456 0 01-.131-.347V7.345h-1.168V9.2c0 .428.165.789.49 1.076a1.71 1.71 0 001.171.428h.853v3.136h1.166V7.345h-1.166v2.262zm2.458-2.262v1.08h.969v5.414h1.18V8.425h.968v-1.08h-3.117zm-1.711 8.922v2.076h-1.6v-2.076h-1.163v6.496h1.163v-3.34h1.6v3.34h1.164v-6.496h-1.164zM35.68 21.758c-.112 0-.397-.027-.397-.027v-2.286s.091-.022.191-.022c.592 0 1.29-.036 1.29 1.166 0 1.102-.767 1.169-1.083 1.169zm.142-3.366c-.2 0-.38.005-.54.013v-1.058h2.092v-1.08h-3.257v6.494h1.77c1.763 0 2.036-1.607 2.036-2.201 0-.704-.271-2.168-2.101-2.168zm4.333-7.786c.01-1.758.434-2.337.88-2.345.448.008.872.587.882 2.344-.01 1.717-.434 2.304-.881 2.313-.447-.01-.871-.595-.881-2.312zm2.923-.241c-.02-.929-.176-1.595-.417-2.067-.38-.808-.986-1.11-1.611-1.118h-.028c-.625.008-1.23.31-1.611 1.118-.241.473-.397 1.138-.417 2.067l-.003.21c.001.579.064 1.14.187 1.592.32 1.33 1.06 1.801 1.832 1.815l.016.001h.036c.772-.015 1.512-.486 1.832-1.816.123-.452.186-1.013.186-1.592l-.002-.21zm11.086 12.396l-1.402-3.806c.29-.222.518-.648.618-1.072.098-.412.227-1.616.227-1.616h-1.148c-.007.123-.031.535-.067.954-.053.62-.232 1.193-.852 1.193h-.478v-2.147h-1.166v6.496h1.166v-3.298h.704l1.146 3.296h1.252z" fill="#fff"/></g></svg>