<svg viewBox="0 0 109 22" fill="none" xmlns="http://www.w3.org/2000/svg"><g clip-path="url(#clip0)" fill="#EF3124"><path d="M105.262 4.263l-3.719 4.107V4.263h-2.691v10.37h2.691v-4.366l3.981 4.366h3.477l-4.898-5.434 4.542-4.936h-3.383zM94.105 8.13h-3.719V4.264h-2.692v10.37h2.692v-4.09h3.719v4.09h2.692V4.263h-2.692v3.868zM15.98 9.88c-.064 1.934-.318 2.321-1.42 2.321v2.431h.411c2.75 0 3.412-1.4 3.514-4.512l.111-3.444h2.58v7.957h2.692V4.263h-7.7L15.98 9.88zM30.352 12.349h-1.739V9.715h1.739c.934 0 1.495.405 1.495 1.27 0 .94-.542 1.364-1.495 1.364zm.205-4.936h-1.944v-3.15h-2.691v10.37h4.673c2.934 0 3.98-1.879 3.98-3.647 0-2.284-1.457-3.573-4.018-3.573zM43.342 12.367V6.51c1.495.202 2.43 1.307 2.43 2.929 0 1.62-.935 2.725-2.43 2.928zm-2.691 0c-1.496-.203-2.43-1.308-2.43-2.928 0-1.622.934-2.727 2.43-2.929v5.857zm2.691-8.343V.174h-2.691v3.85c-3.084.257-5.159 2.413-5.159 5.415 0 3.02 2.075 5.175 5.159 5.433v3.905h2.691v-3.905c3.084-.24 5.159-2.413 5.159-5.433s-2.075-5.176-5.159-5.415zM55.902 10.764c0 1.197-.86 1.88-1.982 1.88-.971 0-1.738-.35-1.738-1.382 0-1.013.841-1.18 1.57-1.18h2.15v.682zm2.691.682V7.965c0-2.542-1.644-4.144-4.41-4.144-2.86 0-4.374 1.694-4.505 3.463h2.729c.093-.387.504-1.05 1.775-1.05 1.047 0 1.72.478 1.72 1.73H53.23c-2.392 0-3.813 1.235-3.813 3.298 0 2.155 1.554 3.628 3.794 3.628 1.643 0 2.555-.765 2.953-1.344.356.7 1.14 1.086 2.168 1.086h.935v-2.394c-.486 0-.673-.221-.673-.792zM69.995 12.017h-2.879V8.26h2.879c1.495 0 2.336.681 2.336 1.878 0 1.234-.841 1.879-2.336 1.879zm.13-6.28h-3.008v-2.93h6.97V.175h-9.793v14.458h5.832c3.233 0 5.083-1.584 5.083-4.494 0-2.744-1.85-4.402-5.084-4.402zM82.816 10.764c0 1.197-.86 1.88-1.981 1.88-.972 0-1.738-.35-1.738-1.382 0-1.013.84-1.18 1.57-1.18h2.15v.682zm2.691.682V7.965c0-2.542-1.644-4.144-4.41-4.144-2.86 0-4.374 1.694-4.505 3.463h2.729c.093-.387.504-1.05 1.775-1.05 1.047 0 1.72.478 1.72 1.73h-2.673c-2.392 0-3.813 1.235-3.813 3.298 0 2.155 1.554 3.628 3.794 3.628 1.643 0 2.555-.765 2.953-1.344.356.7 1.14 1.086 2.168 1.086h.935v-2.394c-.486 0-.673-.221-.673-.792zM14.392 22H0v-2.947h14.392V22zM5.14 9.162L7.157 3.25h.075l1.906 5.912h-4zM9.81 2.158C9.401.953 8.928 0 7.307 0c-1.62 0-2.123.948-2.555 2.158L.299 14.632h2.953l1.028-2.965h5.682l.953 2.966h3.14L9.81 2.158z"/></g><defs><clipPath id="clip0"><path fill="#fff" d="M0 0h109v22H0z"/></clipPath></defs></svg>